<?xml version="1.0" encoding="UTF-8"?><svg id="Calque_1" xmlns="http://www.w3.org/2000/svg" viewBox="0 0 595.28 258.22"><defs><style>.cls-1,.cls-2,.cls-3,.cls-4,.cls-5,.cls-6,.cls-7,.cls-8,.cls-9,.cls-10,.cls-11,.cls-12,.cls-13,.cls-14,.cls-15,.cls-16,.cls-17,.cls-18{font-family:MinionVariableConcept-Roman, 'Minion Variable Concept';}.cls-1,.cls-2,.cls-19{letter-spacing:0em;}.cls-1,.cls-3,.cls-20,.cls-7,.cls-10,.cls-11,.cls-21,.cls-12,.cls-22,.cls-14,.cls-15,.cls-17,.cls-18{font-variation-settings:'wght' 400, 'opsz' 11;}.cls-23{stroke-dasharray:0 2;}.cls-23,.cls-24,.cls-25,.cls-26,.cls-27,.cls-28,.cls-29,.cls-30,.cls-31,.cls-32,.cls-33,.cls-34{fill:none;stroke-miterlimit:10;}.cls-23,.cls-27,.cls-28,.cls-34{stroke:#1d1d1b;}.cls-23,.cls-27,.cls-31,.cls-32,.cls-33,.cls-34{stroke-width:.75px;}.cls-3,.cls-4,.cls-35{letter-spacing:0em;}.cls-36{letter-spacing:-.02em;}.cls-37{letter-spacing:.02em;}.cls-24{stroke-dasharray:0 0 1.98 1.98;}.cls-24,.cls-29,.cls-32{stroke:#009ee2;}.cls-38{letter-spacing:0em;}.cls-25{stroke:#000;}.cls-39{letter-spacing:.01em;}.cls-40{font-size:15px;}.cls-40,.cls-21,.cls-22,.cls-41,.cls-42{fill:#1d1d1b;}.cls-5{letter-spacing:.02em;}.cls-26,.cls-33{stroke:#f29100;}.cls-43{letter-spacing:-.11em;}.cls-6,.cls-44{letter-spacing:0em;}.cls-45{letter-spacing:0em;}.cls-7{letter-spacing:.02em;}.cls-46{letter-spacing:.01em;}.cls-47{letter-spacing:.04em;}.cls-48{letter-spacing:0em;}.cls-8{letter-spacing:0em;}.cls-49,.cls-21,.cls-22,.cls-50{font-family:MinionVariableConcept-Italic, 'Minion Variable Concept';}.cls-49,.cls-51{letter-spacing:.03em;}.cls-52{letter-spacing:.01em;}.cls-10{letter-spacing:-.08em;}.cls-11{letter-spacing:-.03em;}.cls-21{font-size:18px;}.cls-53{letter-spacing:0em;}.cls-54{letter-spacing:0em;}.cls-55{fill:#009540;}.cls-12{letter-spacing:0em;}.cls-56{fill:#f29100;}.cls-13{letter-spacing:-.02em;}.cls-57{letter-spacing:0em;}.cls-22,.cls-41{font-size:20px;}.cls-14{letter-spacing:0em;}.cls-58,.cls-41{font-family:MyriadPro-Regular, 'Myriad Pro';}.cls-30{stroke:#575757;stroke-width:2px;}.cls-59{fill:#009ee2;}.cls-31{stroke:#009540;}.cls-60,.cls-18{letter-spacing:0em;}.cls-61{letter-spacing:0em;}.cls-62{letter-spacing:0em;}.cls-16{letter-spacing:0em;}.cls-63{letter-spacing:.02em;}.cls-64{letter-spacing:-.01em;}.cls-65{letter-spacing:.01em;}.cls-66{letter-spacing:-.02em;}.cls-67{letter-spacing:0em;}.cls-17{letter-spacing:0em;}.cls-34{stroke-dasharray:0 0 2.05 2.05;}.cls-68{letter-spacing:0em;}.cls-69{letter-spacing:-.03em;}</style></defs><rect class="cls-30" x="49.01" y="26.15" width="142.17" height="194.9"/><rect class="cls-25" x="61.85" y="170.15" width="21.55" height="39.9"/><rect class="cls-25" x="158.16" y="170.15" width="21.55" height="39.9"/><rect class="cls-29" x="109.32" y="170.15" width="21.55" height="39.9"/><rect class="cls-25" x="52.68" y="50.46" width="39.9" height="21.55" transform="translate(-13.83 100.59) rotate(-64.61)"/><rect class="cls-25" x="148.99" y="52.89" width="39.9" height="21.55" transform="translate(19.09 164.35) rotate(-54.55)"/><rect class="cls-29" x="100.83" y="52.89" width="39.9" height="21.55" transform="translate(4.88 135.83) rotate(-59.7)"/><line class="cls-26" x1="352.15" y1="190.1" x2="72.63" y2="190.1"/><g><line class="cls-31" x1="72.63" y1="189.53" x2="72.63" y2="145.31"/><path class="cls-55" d="M72.63,146.65l-2.7,1.64-.06-.09,1.75-4.41c.34-1.54,.68-3.07,1.01-4.61,.34,1.54,.68,3.07,1.01,4.61l1.75,4.41-.05,.09-2.72-1.64Z"/></g><g><line class="cls-31" x1="120.1" y1="139.77" x2="120.1" y2="183.98"/><path class="cls-55" d="M120.1,182.64l2.7-1.64,.06,.09-1.75,4.41c-.34,1.54-.68,3.07-1.01,4.61-.34-1.54-.68-3.07-1.01-4.61l-1.75-4.41,.05-.09,2.72,1.64Z"/></g><g><line class="cls-31" x1="168.94" y1="190.1" x2="168.94" y2="145.88"/><path class="cls-55" d="M168.94,147.23l-2.7,1.64-.06-.09,1.75-4.41c.34-1.54,.68-3.07,1.01-4.61,.34,1.54,.68,3.07,1.01,4.61l1.75,4.41-.05,.09-2.72-1.64Z"/></g><polyline class="cls-33" points="79.2 190.1 79.2 182.38 72.63 182.38"/><polyline class="cls-33" points="126.13 190.1 126.13 183.83 120.1 183.83"/><polyline class="cls-33" points="174.13 190.1 174.13 184.6 168.94 184.6"/><polyline class="cls-26" points="120.78 63.66 352.15 190.1 72.63 61.23"/><line class="cls-26" x1="168.94" y1="63.66" x2="352.15" y2="190.1"/><g><line class="cls-31" x1="72.63" y1="61.44" x2="91.15" y2="21.29"/><path class="cls-55" d="M90.58,22.51l-3.14,.36-.02-.11,3.43-3.27c.95-1.25,1.9-2.51,2.85-3.76-.34,1.54-.67,3.07-1.01,4.61l-.26,4.73-.08,.06-1.78-2.63Z"/></g><g><line class="cls-31" x1="120.78" y1="63.66" x2="143.18" y2="25.54"/><path class="cls-55" d="M142.5,26.7l-3.16,.05v-.11s3.73-2.91,3.73-2.91c1.07-1.15,2.14-2.31,3.21-3.46-.49,1.49-.97,2.99-1.46,4.48l-.72,4.69-.09,.06-1.51-2.79Z"/></g><g><line class="cls-31" x1="168.94" y1="63.66" x2="195" y2="27.94"/><path class="cls-55" d="M194.2,29.03l-3.15-.26v-.11s4.02-2.53,4.02-2.53c1.18-1.04,2.35-2.08,3.53-3.12-.63,1.44-1.26,2.88-1.9,4.32l-1.18,4.59-.09,.05-1.23-2.93Z"/></g><polyline class="cls-33" points="78.54 63.96 81.34 57.68 75.61 54.98"/><polyline class="cls-33" points="125.05 65.99 127.66 61.23 123.73 58.64"/><polyline class="cls-33" points="173.66 66.93 177.08 62.32 172.15 58.64"/><path class="cls-56" d="M349.09,193.73c7.72,0,7.73-12,0-12s-7.73,12,0,12h0Z"/><text class="cls-21" transform="translate(320.25 157.98)"><tspan x="0" y="0">C</tspan><tspan class="cls-68" x="11.36" y="0">I</tspan><tspan x="17.64" y="0">R</tspan></text><g><line class="cls-29" x1="120.1" y1="190.56" x2="120.1" y2="189.56"/><line class="cls-24" x1="120.11" y1="187.58" x2="120.68" y2="65.99"/><line class="cls-29" x1="120.69" y1="65" x2="120.69" y2="64"/></g><rect class="cls-28" x="368.64" y="181.73" width="39.9" height="21.55" transform="translate(195.52 580.82) rotate(-89.92)"/><rect class="cls-28" x="369.51" y="55.3" width="39.9" height="21.55" transform="translate(135.48 368.63) rotate(-59.62)"/><g><line class="cls-31" x1="389.46" y1="66.07" x2="411.91" y2="27.98"/><path class="cls-55" d="M411.23,29.14l-3.16,.04v-.11s3.74-2.91,3.74-2.91c1.07-1.15,2.14-2.3,3.21-3.45-.49,1.49-.98,2.99-1.47,4.48l-.73,4.68-.09,.06-1.51-2.8Z"/></g><line class="cls-28" x1="388.59" y1="192.97" x2="389.37" y2="66.41"/><g><line class="cls-27" x1="389.37" y1="66.41" x2="389.37" y2="65.41"/><line class="cls-34" x1="389.35" y1="63.36" x2="388.89" y2="-5.34"/></g><g><path class="cls-32" d="M404.99,37.45c-2.19-4.31-6.3-6.29-9.79-7.19"/><path class="cls-59" d="M396.5,30.64l1.22,2.92-.1,.05-4.09-2.39c-1.47-.56-2.93-1.13-4.4-1.69,1.57-.1,3.14-.21,4.71-.31l4.62-1.07,.08,.06-2.03,2.44Z"/></g><path class="cls-42" d="M389.07,131.8c3.22,0,3.22-5,0-5s-3.22,5,0,5h0Z"/><line class="cls-23" x1="389.07" y1="129.3" x2="421.18" y2="128.76"/><g><path class="cls-27" d="M404.68,128.54c.63-10.55-7.84-13.06-12.56-13.64"/><path class="cls-42" d="M392.79,115.02l.72,1.41-.05,.03-2.13-1.04c-.75-.23-1.51-.45-2.26-.68,.78-.11,1.56-.22,2.33-.33l2.26-.71,.04,.03-.92,1.29Z"/></g><text class="cls-40" transform="translate(448.45 57.61)"><tspan class="cls-58" x="0" y="0">δ</tspan><tspan class="cls-15" x="8.19" y="0" xml:space="preserve"> : a</tspan><tspan class="cls-1" x="26.31" y="0">n</tspan><tspan class="cls-15" x="34.47" y="0">g</tspan><tspan class="cls-18" x="41.5" y="0">l</tspan><tspan class="cls-15" x="45.35" y="0">e </tspan><tspan class="cls-3" x="55.32" y="0">d</tspan><tspan class="cls-15" x="63.28" y="0">e </tspan><tspan class="cls-17" x="73.26" y="0">l</tspan><tspan class="cls-14" x="77.08" y="0">a </tspan><tspan class="cls-1" x="87.3" y="0">r</tspan><tspan class="cls-15" x="92.74" y="0">o</tspan><tspan class="cls-18" x="100.48" y="0">u</tspan><tspan class="cls-15" x="108.43" y="0">e </tspan><tspan class="cls-15"><tspan class="cls-66" x="0" y="18">a</tspan><tspan class="cls-52" x="6.38" y="18">v</tspan><tspan x="13.37" y="18">a</tspan><tspan class="cls-38" x="20.08" y="18">n</tspan><tspan x="28.27" y="18">t</tspan></tspan><tspan class="cls-20"><tspan class="cls-49" x="0" y="36">v</tspan><tspan class="cls-50" x="6.96" y="36">f</tspan><tspan class="cls-9" x="11.17" y="36" xml:space="preserve"> : </tspan><tspan class="cls-5" x="22.58" y="36">v</tspan><tspan class="cls-6" x="29.67" y="36">i</tspan><tspan class="cls-13" x="33.64" y="36">t</tspan><tspan class="cls-9" x="37.95" y="36">es</tspan><tspan class="cls-16" x="50.02" y="36">s</tspan><tspan class="cls-9" x="55.68" y="36">e </tspan><tspan class="cls-4" x="65.65" y="36">d</tspan><tspan class="cls-9" x="73.62" y="36">e </tspan><tspan class="cls-8" x="83.59" y="36">l</tspan><tspan class="cls-9" x="87.42" y="36">a </tspan><tspan class="cls-2" x="97.63" y="36">r</tspan><tspan class="cls-9" x="103.08" y="36">o</tspan><tspan class="cls-4" x="110.82" y="36">u</tspan><tspan class="cls-9" x="118.77" y="36">e </tspan></tspan><tspan class="cls-15"><tspan class="cls-66" x="0" y="54">a</tspan><tspan class="cls-52" x="6.38" y="54">v</tspan><tspan x="13.37" y="54">a</tspan><tspan class="cls-38" x="20.08" y="54">n</tspan><tspan x="28.27" y="54">t</tspan></tspan><tspan class="cls-58" x="0" y="72">ψ</tspan><tspan class="cls-15" x="9.83" y="72" xml:space="preserve"> : </tspan><tspan class="cls-17" x="21.23" y="72">la</tspan><tspan class="cls-15" x="31.7" y="72">c</tspan><tspan class="cls-12" x="38.12" y="72">e</tspan><tspan class="cls-15" x="44.69" y="72">t (</tspan><tspan class="cls-10" x="58.2" y="72">Y</tspan><tspan class="cls-11" x="65.15" y="72">a</tspan><tspan class="cls-7" x="71.47" y="72">w</tspan><tspan class="cls-15" x="82.04" y="72">)</tspan><tspan class="cls-15"><tspan class="cls-48" x="0" y="90">C</tspan><tspan class="cls-46" x="10.44" y="90">I</tspan><tspan x="15.97" y="90">R : </tspan><tspan class="cls-54" x="36.57" y="90">C</tspan><tspan x="47.02" y="90">e</tspan><tspan class="cls-61" x="53.5" y="90">n</tspan><tspan class="cls-44" x="61.69" y="90">t</tspan><tspan class="cls-19" x="66.16" y="90">r</tspan><tspan x="71.61" y="90">e </tspan><tspan class="cls-69" x="81.58" y="90">I</tspan><tspan class="cls-64" x="86.53" y="90">n</tspan><tspan class="cls-19" x="94.66" y="90">s</tspan><tspan x="100.12" y="90">ta</tspan><tspan class="cls-61" x="111.4" y="90">n</tspan><tspan x="119.59" y="90">ta</tspan><tspan x="130.87" y="90">-</tspan></tspan><tspan class="cls-15"><tspan class="cls-60" x="0" y="108">n</tspan><tspan x="8.24" y="108">é </tspan><tspan class="cls-35" x="18.21" y="108">d</tspan><tspan x="26.17" y="108">e </tspan><tspan class="cls-37" x="36.15" y="108">R</tspan><tspan x="45.69" y="108">ot</tspan><tspan class="cls-67" x="57.99" y="108">a</tspan><tspan x="64.56" y="108">t</tspan><tspan class="cls-35" x="69.12" y="108">i</tspan><tspan class="cls-44" x="73.12" y="108">o</tspan><tspan x="80.77" y="108">n </tspan></tspan></text><text class="cls-22" transform="translate(57.43 248.65)"><tspan class="cls-36" x="0" y="0">M</tspan><tspan x="17.2" y="0">od</tspan><tspan class="cls-45" x="37.06" y="0">e</tspan><tspan x="45.06" y="0">le </tspan><tspan class="cls-57" x="62.96" y="0">d</tspan><tspan class="cls-43" x="73.3" y="0">’</tspan><tspan class="cls-47" x="75.34" y="0">A</tspan><tspan class="cls-57" x="87.52" y="0">c</tspan><tspan class="cls-39" x="95.12" y="0">k</tspan><tspan x="104.96" y="0">e</tspan><tspan class="cls-63" x="113.12" y="0">r</tspan><tspan class="cls-62" x="120.84" y="0">m</tspan><tspan x="136.74" y="0">ann </tspan></text><text class="cls-22" transform="translate(348.42 245.58)"><tspan class="cls-54" x="0" y="0">B</tspan><tspan x="11.78" y="0">i</tspan><tspan class="cls-51" x="17.26" y="0">c</tspan><tspan class="cls-65" x="25.48" y="0">y</tspan><tspan class="cls-57" x="34.56" y="0">c</tspan><tspan x="42.16" y="0">le mod</tspan><tspan class="cls-53" x="95.9" y="0">e</tspan><tspan x="103.9" y="0">l </tspan></text><text class="cls-41" transform="translate(404.02 119.01) rotate(-1.66)"><tspan x="0" y="0">ψ</tspan></text><text class="cls-22" transform="translate(415.57 40.08) rotate(-1.66)"><tspan class="cls-51" x="0" y="0">v</tspan><tspan x="9.28" y="0">f</tspan></text><text class="cls-41" transform="translate(395.3 22.12) rotate(-1.66)"><tspan x="0" y="0">δ</tspan></text></svg>