<?xml version="1.0" encoding="UTF-8"?><svg id="Calque_1" xmlns="http://www.w3.org/2000/svg" viewBox="0 0 595.28 351.04"><defs><style>.cls-1,.cls-2,.cls-3,.cls-4,.cls-5,.cls-6,.cls-7,.cls-8,.cls-9,.cls-10,.cls-11,.cls-12,.cls-13,.cls-14,.cls-15,.cls-16,.cls-17,.cls-18,.cls-19,.cls-20,.cls-21,.cls-22,.cls-23,.cls-24,.cls-25,.cls-26,.cls-27,.cls-28,.cls-29,.cls-30,.cls-31,.cls-32,.cls-33,.cls-34,.cls-35,.cls-36,.cls-37{font-family:MinionVariableConcept-Roman, 'Minion Variable Concept';}.cls-1,.cls-2,.cls-38{letter-spacing:0em;}.cls-1,.cls-3,.cls-39,.cls-6,.cls-9,.cls-10,.cls-12,.cls-14,.cls-18,.cls-19,.cls-21,.cls-40,.cls-23,.cls-25,.cls-26,.cls-41,.cls-29,.cls-31,.cls-32,.cls-33,.cls-34,.cls-35,.cls-36,.cls-37{font-variation-settings:'wght' 400, 'opsz' 11;}.cls-42,.cls-43,.cls-44,.cls-45,.cls-46,.cls-47,.cls-48,.cls-49,.cls-50,.cls-51,.cls-52{fill:none;}.cls-42,.cls-43,.cls-44,.cls-45,.cls-46,.cls-48,.cls-49,.cls-50,.cls-51,.cls-52{stroke-miterlimit:10;}.cls-42,.cls-44,.cls-45,.cls-46,.cls-52{stroke:#1d1d1b;}.cls-42,.cls-44,.cls-48,.cls-50,.cls-51,.cls-52{stroke-width:.75px;}.cls-42,.cls-49{stroke-dasharray:0 2;}.cls-3,.cls-4,.cls-53{letter-spacing:0em;}.cls-54,.cls-31{letter-spacing:.02em;}.cls-5,.cls-55{letter-spacing:0em;}.cls-56{letter-spacing:-.01em;}.cls-57,.cls-14{letter-spacing:0em;}.cls-58,.cls-33{letter-spacing:0em;}.cls-6,.cls-59,.cls-24{letter-spacing:-.02em;}.cls-60{font-size:15px;}.cls-60,.cls-40,.cls-41,.cls-61,.cls-62{fill:#1d1d1b;}.cls-7,.cls-63{letter-spacing:.02em;}.cls-64,.cls-22,.cls-23{letter-spacing:0em;}.cls-43,.cls-49,.cls-51{stroke:#f29100;}.cls-8,.cls-65,.cls-32{letter-spacing:0em;}.cls-66{letter-spacing:0em;}.cls-67{letter-spacing:.01em;}.cls-9,.cls-30{letter-spacing:0em;}.cls-10,.cls-11{letter-spacing:0em;}.cls-68,.cls-20{letter-spacing:0em;}.cls-12{letter-spacing:0em;}.cls-15,.cls-69{letter-spacing:0em;}.cls-16,.cls-18{letter-spacing:.02em;}.cls-70,.cls-40,.cls-41,.cls-71{font-family:MinionVariableConcept-Italic, 'Minion Variable Concept';}.cls-70,.cls-72{letter-spacing:.03em;}.cls-17,.cls-73,.cls-34{letter-spacing:0em;}.cls-19{letter-spacing:-.03em;}.cls-74,.cls-37{letter-spacing:.01em;}.cls-21{letter-spacing:-.08em;}.cls-40{font-size:18px;}.cls-75{fill:#009540;}.cls-76{fill:#f29100;}.cls-25{letter-spacing:0em;}.cls-77{letter-spacing:0em;}.cls-78,.cls-26{letter-spacing:0em;}.cls-79{letter-spacing:0em;}.cls-80{letter-spacing:0em;}.cls-46{stroke-width:2px;}.cls-81{letter-spacing:0em;}.cls-27,.cls-36{letter-spacing:0em;}.cls-41,.cls-61{font-size:20px;}.cls-82,.cls-61{font-family:MyriadPro-Regular, 'Myriad Pro';}.cls-28,.cls-83,.cls-35{letter-spacing:-.02em;}.cls-84{fill:#009ee2;}.cls-48{stroke:#009540;}.cls-85{letter-spacing:0em;}.cls-86{letter-spacing:0em;}.cls-87{letter-spacing:-.01em;}.cls-88{letter-spacing:.01em;}.cls-89{letter-spacing:-.01em;}.cls-90{letter-spacing:-.02em;}.cls-50{stroke:#009ee2;}.cls-52{stroke-dasharray:0 0 2.05 2.05;}.cls-91{letter-spacing:0em;}.cls-92{letter-spacing:-.03em;}.cls-93{letter-spacing:-.02em;}</style></defs><rect class="cls-45" x="98.56" y="217.5" width="39.9" height="21.55" transform="translate(-129.63 295.96) rotate(-77.82)"/><rect class="cls-45" x="125.91" y="94.05" width="39.9" height="21.55" transform="translate(-29.96 141.61) rotate(-47.52)"/><g><line class="cls-48" x1="145.85" y1="104.83" x2="175.79" y2="72.29"/><path class="cls-75" d="M174.88,73.28l-3.1-.62,.02-.11,4.27-2.06c1.29-.9,2.58-1.8,3.86-2.7-.79,1.36-1.58,2.72-2.37,4.08l-1.7,4.43-.1,.04-.89-3.05Z"/></g><line class="cls-45" x1="118.41" y1="228.72" x2="145.7" y2="105.14"/><g><line class="cls-44" x1="145.7" y1="105.14" x2="145.9" y2="104.16"/><line class="cls-52" x1="146.32" y1="102.15" x2="160.26" y2="34.88"/><line class="cls-44" x1="160.47" y1="33.88" x2="160.67" y2="32.9"/></g><g><path class="cls-50" d="M167.03,80.09c-1.24-4.68-4.84-7.47-8.07-9.08"/><path class="cls-84" d="M160.16,71.66l.58,3.11-.11,.02-3.5-3.19c-1.32-.86-2.63-1.72-3.95-2.58,1.56,.23,3.11,.45,4.67,.68l4.74-.08,.07,.08-2.5,1.96Z"/></g><g><polyline class="cls-46" points="72.63 231.11 72.63 269.12 108.22 269.12"/><path class="cls-62" d="M72.63,232.91l3.6,2.19,.08-.12-2.33-5.88c-.45-2.05-.9-4.09-1.35-6.14-.45,2.05-.9,4.09-1.35,6.14l-2.33,5.88,.06,.12,3.62-2.19Z"/><polygon class="cls-62" points="115.28 269.12 105.33 273.19 107.69 269.12 105.33 265.06 115.28 269.12"/></g><text class="cls-41" transform="translate(81.64 288.82)"><tspan x="0" y="0">x</tspan></text><text class="cls-41" transform="translate(52.94 253.18)"><tspan x="0" y="0">y</tspan></text><path class="cls-62" d="M132.22,169.07c3.22,0,3.22-5,0-5s-3.22,5,0,5h0Z"/><text class="cls-61" transform="translate(161.52 67.66)"><tspan x="0" y="0">δ</tspan></text><text class="cls-41" transform="translate(173.19 88.92)"><tspan class="cls-72" x="0" y="0">v</tspan><tspan x="9.28" y="0">f</tspan></text><line class="cls-42" x1="132.22" y1="166.57" x2="149.98" y2="166.77"/><g><path class="cls-44" d="M149.1,166.93c0-10.18-6.72-13.26-10.79-14.19"/><path class="cls-62" d="M138.96,152.92l.6,1.46-.05,.02-2.04-1.21c-.73-.29-1.46-.58-2.19-.86,.78-.05,1.57-.09,2.35-.14l2.31-.52,.04,.03-1.03,1.21Z"/></g><text class="cls-61" transform="translate(151.21 166.75)"><tspan x="0" y="0">ψ</tspan></text><g><line class="cls-45" x1="67.71" y1="96.71" x2="55.49" y2="136.51"/><path class="cls-62" d="M67.18,98.43l2.8,3.15,.11-.09-.51-6.3c.17-2.09,.34-4.18,.51-6.27-1.03,1.82-2.06,3.65-3.09,5.47l-3.96,4.93,.02,.14,4.11-1.03Z"/><polygon class="cls-62" points="53.41 143.26 52.45 132.56 55.64 136.01 60.22 134.94 53.41 143.26"/></g><g><line class="cls-45" x1="48.93" y1="157.51" x2="33.51" y2="203.06"/><path class="cls-62" d="M48.35,159.21l2.71,3.23,.12-.09-.33-6.31c.23-2.08,.46-4.17,.69-6.25-1.08,1.79-2.16,3.59-3.25,5.38l-4.09,4.82,.02,.14,4.13-.91Z"/><path class="cls-62" d="M34.09,201.36l4.12-.92,.04,.14-4.09,4.82c-1.08,1.79-2.16,3.59-3.25,5.38,.23-2.08,.46-4.17,.69-6.25l-.33-6.31,.1-.1,2.73,3.24Z"/></g><g><line class="cls-45" x1="96.93" y1="101.68" x2="66.34" y2="202.98"/><path class="cls-62" d="M96.42,103.4l2.82,3.14,.11-.09-.54-6.3c.16-2.09,.32-4.18,.48-6.27-1.02,1.83-2.05,3.66-3.07,5.49l-3.93,4.95,.02,.14,4.1-1.05Z"/><path class="cls-62" d="M66.86,201.26l4.08-1.06,.04,.14-3.93,4.95c-1.02,1.83-2.05,3.66-3.07,5.49,.16-2.09,.32-4.18,.48-6.27l-.54-6.3,.09-.1,2.83,3.15Z"/></g><line class="cls-43" x1="342.82" y1="278.55" x2="118.41" y2="228.72"/><line class="cls-43" x1="144.8" y1="104.47" x2="342.82" y2="278.55"/><path class="cls-76" d="M342.57,284.24c7.72,0,7.73-12,0-12s-7.73,12,0,12h0Z"/><text class="cls-40" transform="translate(354.18 285.05)"><tspan x="0" y="0">C</tspan><tspan class="cls-91" x="11.36" y="0">I</tspan><tspan x="17.64" y="0">R</tspan></text><g><path class="cls-44" d="M336.02,293.22s-28.32-26.15,7.45-34"/><polygon class="cls-62" points="348.69 258.28 341.92 262.67 343.1 259.34 340.79 256.68 348.69 258.28"/></g><text class="cls-61" transform="translate(325.38 251.38)"><tspan x="0" y="0" xml:space="preserve"> ̇ψ</tspan></text><text class="cls-60" transform="translate(416.88 18.81)"><tspan class="cls-82" x="0" y="0">δ</tspan><tspan class="cls-29" x="8.19" y="0" xml:space="preserve"> : a</tspan><tspan class="cls-1" x="26.31" y="0">n</tspan><tspan class="cls-29" x="34.47" y="0">g</tspan><tspan class="cls-34" x="41.5" y="0">l</tspan><tspan class="cls-29" x="45.35" y="0">e </tspan><tspan class="cls-3" x="55.32" y="0">d</tspan><tspan class="cls-29" x="63.28" y="0">e </tspan><tspan class="cls-10" x="73.26" y="0">l</tspan><tspan class="cls-25" x="77.08" y="0">a </tspan><tspan class="cls-26" x="87.3" y="0">r</tspan><tspan class="cls-29" x="92.74" y="0">o</tspan><tspan class="cls-34" x="100.48" y="0">u</tspan><tspan class="cls-29" x="108.43" y="0">e </tspan><tspan class="cls-35" x="118.41" y="0">a</tspan><tspan class="cls-37" x="124.78" y="0">v</tspan><tspan class="cls-29" x="131.77" y="0">a</tspan><tspan class="cls-14" x="138.49" y="0">n</tspan><tspan class="cls-29" x="146.68" y="0">t</tspan><tspan class="cls-39"><tspan class="cls-71" x="0" y="18">v</tspan><tspan class="cls-13" x="6.57" y="18" xml:space="preserve"> : </tspan><tspan class="cls-16" x="17.97" y="18">v</tspan><tspan class="cls-27" x="25.07" y="18">i</tspan><tspan class="cls-24" x="29.04" y="18">t</tspan><tspan class="cls-13" x="33.34" y="18">es</tspan><tspan class="cls-30" x="45.42" y="18">s</tspan><tspan class="cls-13" x="51.07" y="18">e </tspan><tspan class="cls-4" x="61.05" y="18">d</tspan><tspan class="cls-13" x="69.01" y="18">u </tspan><tspan class="cls-30" x="80.52" y="18">v</tspan><tspan class="cls-13" x="87.36" y="18">éh</tspan><tspan class="cls-4" x="101.98" y="18">i</tspan><tspan class="cls-20" x="105.99" y="18">c</tspan><tspan class="cls-13" x="112.53" y="18">u</tspan><tspan class="cls-17" x="120.54" y="18">l</tspan><tspan class="cls-13" x="124.38" y="18">e</tspan></tspan><tspan class="cls-39"><tspan class="cls-70" x="0" y="36">v</tspan><tspan class="cls-71" x="6.96" y="36">f</tspan><tspan class="cls-13" x="11.17" y="36" xml:space="preserve"> : </tspan><tspan class="cls-7" x="22.57" y="36">v</tspan><tspan class="cls-8" x="29.67" y="36">i</tspan><tspan class="cls-24" x="33.64" y="36">t</tspan><tspan class="cls-13" x="37.95" y="36">es</tspan><tspan class="cls-30" x="50.02" y="36">s</tspan><tspan class="cls-13" x="55.68" y="36">e </tspan><tspan class="cls-4" x="65.65" y="36">d</tspan><tspan class="cls-13" x="73.62" y="36">e </tspan><tspan class="cls-11" x="83.59" y="36">l</tspan><tspan class="cls-13" x="87.42" y="36">a </tspan><tspan class="cls-2" x="97.63" y="36">r</tspan><tspan class="cls-13" x="103.08" y="36">o</tspan><tspan class="cls-4" x="110.82" y="36">u</tspan><tspan class="cls-13" x="118.77" y="36">e </tspan></tspan><tspan class="cls-29"><tspan class="cls-83" x="0" y="54">a</tspan><tspan class="cls-74" x="6.38" y="54">v</tspan><tspan x="13.37" y="54">a</tspan><tspan class="cls-57" x="20.08" y="54">n</tspan><tspan x="28.27" y="54">t</tspan></tspan><tspan class="cls-82" x="0" y="72">ψ</tspan><tspan class="cls-29" x="9.83" y="72" xml:space="preserve"> : </tspan><tspan class="cls-33" x="21.23" y="72">la</tspan><tspan class="cls-29" x="31.7" y="72">c</tspan><tspan class="cls-23" x="38.12" y="72">e</tspan><tspan class="cls-29" x="44.69" y="72">t (</tspan><tspan class="cls-21" x="58.2" y="72">Y</tspan><tspan class="cls-19" x="65.15" y="72">a</tspan><tspan class="cls-31" x="71.48" y="72">w</tspan><tspan class="cls-29" x="82.04" y="72">)</tspan><tspan class="cls-82" x="0" y="90">ψ</tspan><tspan class="cls-29" x="9.83" y="90" xml:space="preserve"> : </tspan><tspan class="cls-18" x="21.23" y="90">v</tspan><tspan class="cls-36" x="28.32" y="90">i</tspan><tspan class="cls-6" x="32.3" y="90">t</tspan><tspan class="cls-29" x="36.6" y="90">es</tspan><tspan class="cls-9" x="48.67" y="90">s</tspan><tspan class="cls-29" x="54.33" y="90">e </tspan><tspan class="cls-3" x="64.3" y="90">d</tspan><tspan class="cls-29" x="72.27" y="90">e </tspan><tspan class="cls-1" x="82.24" y="90">r</tspan><tspan class="cls-29" x="87.69" y="90">ot</tspan><tspan class="cls-12" x="99.99" y="90">a</tspan><tspan class="cls-29" x="106.56" y="90">t</tspan><tspan class="cls-3" x="111.12" y="90">i</tspan><tspan class="cls-32" x="115.12" y="90">o</tspan><tspan class="cls-29" x="122.77" y="90">n </tspan><tspan class="cls-82" x="0" y="108">β</tspan><tspan class="cls-29" x="8.4" y="108" xml:space="preserve"> : slip a</tspan><tspan class="cls-1" x="51.55" y="108">n</tspan><tspan class="cls-29" x="59.71" y="108">g</tspan><tspan class="cls-34" x="66.75" y="108">l</tspan><tspan class="cls-29" x="70.59" y="108">e</tspan><tspan class="cls-29"><tspan x="0" y="126">C : ce</tspan><tspan class="cls-69" x="34.62" y="126">n</tspan><tspan class="cls-65" x="42.81" y="126">t</tspan><tspan class="cls-78" x="47.28" y="126">r</tspan><tspan class="cls-77" x="52.72" y="126">e </tspan><tspan class="cls-73" x="62.7" y="126">d</tspan><tspan x="70.66" y="126">e gr</tspan><tspan class="cls-83" x="93.25" y="126">a</tspan><tspan class="cls-63" x="99.63" y="126">v</tspan><tspan class="cls-65" x="106.72" y="126">i</tspan><tspan class="cls-59" x="110.7" y="126">t</tspan><tspan x="115" y="126">é</tspan></tspan><tspan class="cls-39"><tspan class="cls-71" x="0" y="144">L </tspan><tspan class="cls-13" x="11.8" y="144">: d</tspan><tspan class="cls-8" x="27.73" y="144">i</tspan><tspan class="cls-2" x="31.71" y="144">s</tspan><tspan class="cls-13" x="37.17" y="144">ta</tspan><tspan class="cls-4" x="48.45" y="144">n</tspan><tspan class="cls-13" x="56.68" y="144">ce i</tspan><tspan class="cls-15" x="77.14" y="144">n</tspan><tspan class="cls-24" x="85.33" y="144">t</tspan><tspan class="cls-13" x="89.64" y="144">er </tspan><tspan class="cls-2" x="105.19" y="144">r</tspan><tspan class="cls-13" x="110.64" y="144">o</tspan><tspan class="cls-17" x="118.38" y="144">u</tspan><tspan class="cls-13" x="126.33" y="144" xml:space="preserve">e     </tspan></tspan><tspan class="cls-39"><tspan class="cls-13" x="0" y="162">(</tspan><tspan class="cls-71" x="5.46" y="162">lf + lr = L</tspan><tspan class="cls-13" x="62.53" y="162">)</tspan></tspan><tspan class="cls-39"><tspan class="cls-71" x="0" y="180">lf</tspan><tspan class="cls-13" x="8.02" y="180" xml:space="preserve"> : d</tspan><tspan class="cls-8" x="27.45" y="180">i</tspan><tspan class="cls-2" x="31.42" y="180">s</tspan><tspan class="cls-13" x="36.88" y="180">ta</tspan><tspan class="cls-4" x="48.16" y="180">n</tspan><tspan class="cls-13" x="56.4" y="180">ce </tspan><tspan class="cls-28" x="72.79" y="180">a</tspan><tspan class="cls-30" x="79.17" y="180">v</tspan><tspan class="cls-5" x="86.01" y="180">e</tspan><tspan class="cls-13" x="92.62" y="180">c </tspan><tspan class="cls-4" x="102.54" y="180">l</tspan><tspan class="cls-13" x="106.38" y="180">e </tspan><tspan class="cls-5" x="116.35" y="180">C</tspan><tspan class="cls-22" x="126.81" y="180">e</tspan><tspan class="cls-13" x="133.38" y="180">t </tspan><tspan class="cls-11" x="141.43" y="180">l</tspan><tspan class="cls-13" x="145.26" y="180">a </tspan></tspan><tspan class="cls-29"><tspan class="cls-38" x="0" y="198">r</tspan><tspan x="5.45" y="198">o</tspan><tspan class="cls-73" x="13.19" y="198">u</tspan><tspan x="21.14" y="198">e </tspan><tspan class="cls-90" x="31.11" y="198">a</tspan><tspan class="cls-74" x="37.48" y="198">v</tspan><tspan x="44.47" y="198">a</tspan><tspan class="cls-69" x="51.19" y="198">n</tspan><tspan x="59.38" y="198">t</tspan></tspan><tspan class="cls-39"><tspan class="cls-71" x="0" y="216">lr </tspan><tspan class="cls-13" x="12.82" y="216">: d</tspan><tspan class="cls-8" x="28.75" y="216">i</tspan><tspan class="cls-2" x="32.73" y="216">s</tspan><tspan class="cls-13" x="38.19" y="216">ta</tspan><tspan class="cls-4" x="49.47" y="216">n</tspan><tspan class="cls-13" x="57.7" y="216">ce </tspan><tspan class="cls-28" x="74.1" y="216">a</tspan><tspan class="cls-30" x="80.47" y="216">v</tspan><tspan class="cls-5" x="87.31" y="216">e</tspan><tspan class="cls-13" x="93.93" y="216">c </tspan><tspan class="cls-4" x="103.84" y="216">l</tspan><tspan class="cls-13" x="107.68" y="216">e C </tspan><tspan class="cls-22" x="131.47" y="216">e</tspan><tspan class="cls-13" x="138.04" y="216">t </tspan><tspan class="cls-11" x="146.1" y="216">l</tspan><tspan class="cls-13" x="149.92" y="216">a </tspan></tspan><tspan class="cls-29"><tspan class="cls-38" x="0" y="234">r</tspan><tspan x="5.45" y="234">o</tspan><tspan class="cls-73" x="13.19" y="234">u</tspan><tspan x="21.14" y="234">e ar</tspan><tspan class="cls-81" x="43.41" y="234">r</tspan><tspan class="cls-73" x="49.11" y="234">i</tspan><tspan x="53.11" y="234">e</tspan><tspan class="cls-38" x="59.59" y="234">r</tspan><tspan x="65.04" y="234">e</tspan></tspan><tspan class="cls-29"><tspan x="0" y="252">R : d</tspan><tspan class="cls-65" x="28.62" y="252">i</tspan><tspan class="cls-38" x="32.59" y="252">s</tspan><tspan x="38.05" y="252">ta</tspan><tspan class="cls-53" x="49.33" y="252">n</tspan><tspan x="57.57" y="252">ce en C </tspan><tspan class="cls-80" x="106.05" y="252">e</tspan><tspan x="112.62" y="252">t </tspan><tspan class="cls-53" x="120.67" y="252">l</tspan><tspan x="124.51" y="252">e </tspan><tspan class="cls-68" x="134.49" y="252">C</tspan><tspan class="cls-67" x="144.93" y="252">I</tspan><tspan x="150.46" y="252">R</tspan></tspan><tspan class="cls-29"><tspan class="cls-38" x="0" y="270">R</tspan><tspan x="9.06" y="270">’ : d</tspan><tspan class="cls-65" x="31.67" y="270">i</tspan><tspan class="cls-38" x="35.64" y="270">s</tspan><tspan x="41.1" y="270">ta</tspan><tspan class="cls-53" x="52.38" y="270">n</tspan><tspan x="60.61" y="270">ce e</tspan><tspan class="cls-69" x="83.49" y="270">n</tspan><tspan class="cls-65" x="91.68" y="270">t</tspan><tspan class="cls-38" x="96.15" y="270">r</tspan><tspan x="101.59" y="270">e </tspan><tspan class="cls-58" x="111.57" y="270">l</tspan><tspan x="115.39" y="270">a </tspan><tspan class="cls-38" x="125.61" y="270">r</tspan><tspan x="131.05" y="270">o</tspan><tspan class="cls-73" x="138.79" y="270">u</tspan><tspan x="146.74" y="270">e </tspan></tspan><tspan class="cls-29"><tspan x="0" y="288">ar</tspan><tspan class="cls-68" x="12.3" y="288">r</tspan><tspan class="cls-53" x="18" y="288">i</tspan><tspan x="22" y="288">e</tspan><tspan class="cls-38" x="28.48" y="288">r</tspan><tspan x="33.93" y="288">e </tspan><tspan class="cls-64" x="43.9" y="288">e</tspan><tspan x="50.47" y="288">t </tspan><tspan class="cls-73" x="58.53" y="288">l</tspan><tspan x="62.37" y="288">e </tspan><tspan class="cls-68" x="72.34" y="288">C</tspan><tspan class="cls-67" x="82.78" y="288">I</tspan><tspan x="88.32" y="288">R</tspan></tspan><tspan class="cls-29"><tspan class="cls-68" x="0" y="306">C</tspan><tspan class="cls-67" x="10.44" y="306">I</tspan><tspan x="15.97" y="306">R : </tspan><tspan class="cls-55" x="36.57" y="306">C</tspan><tspan x="47.02" y="306">e</tspan><tspan class="cls-69" x="53.5" y="306">n</tspan><tspan class="cls-65" x="61.69" y="306">t</tspan><tspan class="cls-38" x="66.16" y="306">r</tspan><tspan x="71.61" y="306">e </tspan><tspan class="cls-92" x="81.58" y="306">I</tspan><tspan class="cls-87" x="86.53" y="306">n</tspan><tspan class="cls-38" x="94.66" y="306">s</tspan><tspan x="100.12" y="306">ta</tspan><tspan class="cls-69" x="111.4" y="306">n</tspan><tspan x="119.59" y="306">ta</tspan><tspan class="cls-53" x="130.87" y="306">n</tspan><tspan x="139.11" y="306">é </tspan></tspan><tspan class="cls-29"><tspan class="cls-73" x="0" y="324">d</tspan><tspan x="7.96" y="324">e </tspan><tspan class="cls-54" x="17.94" y="324">R</tspan><tspan x="27.48" y="324">ot</tspan><tspan class="cls-56" x="39.78" y="324">a</tspan><tspan x="46.35" y="324">t</tspan><tspan class="cls-73" x="50.91" y="324">i</tspan><tspan class="cls-65" x="54.91" y="324">o</tspan><tspan x="62.56" y="324">n </tspan></tspan></text><line class="cls-49" x1="132.22" y1="166.57" x2="342.82" y2="278.55"/><text class="cls-41" transform="translate(91.45 161.43)"><tspan x="0" y="0">L</tspan></text><text class="cls-41" transform="translate(39.22 119.22)"><tspan x="0" y="0">lf</tspan></text><text class="cls-41" transform="translate(18.59 175.79)"><tspan x="0" y="0">lr</tspan></text><text class="cls-41" transform="translate(176.95 216.12)"><tspan x="0" y="0">R</tspan></text><text class="cls-41" transform="translate(173.05 261.41)"><tspan class="cls-93" x="0" y="0">R</tspan><tspan x="11.22" y="0">’</tspan></text><g><line class="cls-48" x1="132.2" y1="166.75" x2="172.99" y2="141.57"/><path class="cls-75" d="M171.85,142.27l-2.82-1.44,.05-.1,4.67-.83c1.48-.52,2.97-1.04,4.45-1.56-1.13,1.09-2.26,2.19-3.39,3.28l-2.83,3.8h-.1s-.03-3.17-.03-3.17Z"/></g><text class="cls-41" transform="translate(169.86 156.6)"><tspan x="0" y="0">v</tspan></text><g><path class="cls-44" d="M158.25,149.92c1.41-11.63-10.1-14.46-15.77-15.15"/><path class="cls-62" d="M143.14,134.87l.7,1.42-.05,.03-2.12-1.06c-.75-.23-1.5-.47-2.25-.7,.78-.1,1.56-.21,2.34-.31l2.27-.68,.04,.03-.93,1.28Z"/></g><rect class="cls-47" x="246.91" y="118.98" width="48.76" height="21.1"/><text class="cls-61" transform="translate(153.81 135.13)"><tspan x="0" y="0">β</tspan></text><text class="cls-41" transform="translate(112.12 170.07)"><tspan x="0" y="0">C</tspan></text><text class="cls-41" transform="translate(117.51 339.17)"><tspan class="cls-55" x="0" y="0">B</tspan><tspan x="11.78" y="0">i</tspan><tspan class="cls-72" x="17.26" y="0">c</tspan><tspan class="cls-88" x="25.48" y="0">y</tspan><tspan class="cls-79" x="34.56" y="0">c</tspan><tspan x="42.16" y="0">le mod</tspan><tspan class="cls-66" x="95.9" y="0">e</tspan><tspan x="103.9" y="0">l en </tspan><tspan class="cls-86" x="137.18" y="0">c</tspan><tspan x="144.98" y="0">iné</tspan><tspan class="cls-85" x="169.34" y="0">m</tspan><tspan class="cls-89" x="185.24" y="0">a</tspan><tspan x="195.08" y="0">tique</tspan></text><polyline class="cls-51" points="150.62 109.28 154.03 104.67 149.1 101"/><polyline class="cls-51" points="124.19 229.85 125.54 224.59 119.62 223.23"/><path class="cls-62" d="M336.25,236.37c3.22,0,3.22-5,0-5s-3.22,5,0,5h0Z"/><path class="cls-62" d="M421.85,93.13c1.61,0,1.61-2.5,0-2.5s-1.61,2.5,0,2.5h0Z"/></svg>