<?xml version="1.0" encoding="UTF-8"?><svg id="Calque_1" xmlns="http://www.w3.org/2000/svg" viewBox="0 0 595.28 258.23"><defs><style>.cls-1,.cls-2,.cls-3,.cls-4,.cls-5,.cls-6,.cls-7,.cls-8,.cls-9,.cls-10,.cls-11,.cls-12,.cls-13,.cls-14,.cls-15,.cls-16,.cls-17,.cls-18,.cls-19,.cls-20,.cls-21,.cls-22,.cls-23,.cls-24,.cls-25,.cls-26,.cls-27,.cls-28,.cls-29,.cls-30,.cls-31,.cls-32,.cls-33,.cls-34,.cls-35{font-family:MinionVariableConcept-Roman, 'Minion Variable Concept';}.cls-1,.cls-2,.cls-36{letter-spacing:0em;}.cls-1,.cls-3,.cls-37,.cls-8,.cls-10,.cls-15,.cls-17,.cls-20,.cls-22,.cls-23,.cls-38,.cls-27,.cls-31,.cls-32,.cls-33,.cls-34,.cls-35{font-variation-settings:'wght' 400, 'opsz' 11;}.cls-39{stroke-dasharray:0 2;}.cls-39,.cls-40,.cls-41,.cls-42,.cls-43,.cls-44,.cls-45,.cls-46,.cls-47,.cls-48{fill:none;}.cls-39,.cls-40,.cls-41,.cls-42,.cls-43,.cls-45,.cls-46,.cls-47,.cls-48{stroke-miterlimit:10;}.cls-39,.cls-41,.cls-42,.cls-43,.cls-48{stroke:#1d1d1b;}.cls-39,.cls-41,.cls-45,.cls-47,.cls-48{stroke-width:.75px;}.cls-3,.cls-4,.cls-49{letter-spacing:0em;}.cls-5,.cls-50{letter-spacing:0em;}.cls-51{letter-spacing:0em;}.cls-40,.cls-45{stroke:#009540;}.cls-52{font-size:15px;}.cls-52,.cls-38,.cls-53,.cls-54{fill:#1d1d1b;}.cls-6{letter-spacing:.02em;}.cls-7,.cls-55{letter-spacing:0em;}.cls-56{letter-spacing:0em;}.cls-57{letter-spacing:0em;}.cls-58{letter-spacing:-.02em;}.cls-8{letter-spacing:0em;}.cls-10{letter-spacing:0em;}.cls-11{letter-spacing:0em;}.cls-12{letter-spacing:.02em;}.cls-13,.cls-33{letter-spacing:0em;}.cls-14{letter-spacing:-.08em;}.cls-15{letter-spacing:-.03em;}.cls-16{letter-spacing:0em;}.cls-17{letter-spacing:-.08em;}.cls-59{letter-spacing:.02em;}.cls-18,.cls-20{letter-spacing:0em;}.cls-60{fill:#009540;}.cls-19{letter-spacing:0em;}.cls-21{letter-spacing:-.02em;}.cls-61{letter-spacing:.02em;}.cls-22{letter-spacing:0em;}.cls-62{letter-spacing:-.01em;}.cls-63{letter-spacing:0em;}.cls-43{stroke-width:2px;}.cls-23{letter-spacing:0em;}.cls-24{letter-spacing:-.01em;}.cls-64{letter-spacing:0em;}.cls-25{letter-spacing:0em;}.cls-38,.cls-65{font-family:MinionVariableConcept-Italic, 'Minion Variable Concept';}.cls-38,.cls-53{font-size:20px;}.cls-66,.cls-53{font-family:MyriadPro-Regular, 'Myriad Pro';}.cls-26,.cls-34{letter-spacing:-.02em;}.cls-67{fill:#009ee2;}.cls-28{letter-spacing:.01em;}.cls-29,.cls-32{letter-spacing:0em;}.cls-46{stroke:#e42320;stroke-width:3px;}.cls-30{letter-spacing:0em;}.cls-68{letter-spacing:0em;}.cls-69{letter-spacing:.01em;}.cls-31{letter-spacing:.02em;}.cls-47{stroke:#009ee2;}.cls-48{stroke-dasharray:0 0 2.05 2.05;}.cls-70{letter-spacing:-.02em;}.cls-35{letter-spacing:.01em;}</style></defs><rect class="cls-42" x="98.56" y="178.81" width="39.9" height="21.55" transform="translate(-91.81 265.43) rotate(-77.82)"/><rect class="cls-42" x="125.91" y="55.37" width="39.9" height="21.55" transform="translate(-1.43 129.05) rotate(-47.52)"/><g><line class="cls-45" x1="145.85" y1="66.14" x2="175.79" y2="33.6"/><path class="cls-60" d="M174.88,34.59l-3.1-.62,.02-.11,4.27-2.06c1.29-.9,2.58-1.8,3.86-2.7-.79,1.36-1.58,2.72-2.37,4.08l-1.7,4.43-.1,.04-.89-3.05Z"/></g><line class="cls-42" x1="118.41" y1="190.04" x2="145.7" y2="66.46"/><g><line class="cls-41" x1="145.7" y1="66.46" x2="145.9" y2="65.48"/><line class="cls-48" x1="146.32" y1="63.47" x2="160.26" y2="-3.8"/></g><g><path class="cls-47" d="M167.03,41.41c-1.24-4.68-4.84-7.47-8.07-9.08"/><path class="cls-67" d="M160.16,32.97l.58,3.11-.11,.02-3.5-3.19c-1.32-.86-2.63-1.72-3.95-2.58,1.56,.23,3.11,.45,4.67,.68l4.74-.08,.07,.08-2.5,1.96Z"/></g><g><polyline class="cls-43" points="72.63 192.43 72.63 230.44 108.22 230.44"/><path class="cls-54" d="M72.63,194.22l3.6,2.19,.08-.12-2.33-5.88c-.45-2.05-.9-4.09-1.35-6.14-.45,2.05-.9,4.09-1.35,6.14l-2.33,5.88,.06,.12,3.62-2.19Z"/><polygon class="cls-54" points="115.28 230.44 105.33 234.5 107.69 230.44 105.33 226.37 115.28 230.44"/></g><text class="cls-38" transform="translate(81.64 250.14)"><tspan x="0" y="0">x</tspan></text><text class="cls-38" transform="translate(52.94 214.5)"><tspan x="0" y="0">y</tspan></text><path class="cls-54" d="M132.22,130.39c3.22,0,3.22-5,0-5s-3.22,5,0,5h0Z"/><text class="cls-53" transform="translate(161.52 28.98)"><tspan x="0" y="0">δ</tspan></text><text class="cls-38" transform="translate(173.19 50.23)"><tspan x="0" y="0">v</tspan></text><text class="cls-52" transform="translate(396.88 63.39)"><tspan class="cls-66" x="0" y="0">δ</tspan><tspan class="cls-27" x="8.19" y="0" xml:space="preserve"> : a</tspan><tspan class="cls-1" x="26.31" y="0">n</tspan><tspan class="cls-27" x="34.47" y="0">g</tspan><tspan class="cls-33" x="41.5" y="0">l</tspan><tspan class="cls-27" x="45.35" y="0">e </tspan><tspan class="cls-3" x="55.32" y="0">d</tspan><tspan class="cls-27" x="63.28" y="0">e </tspan><tspan class="cls-8" x="73.26" y="0">l</tspan><tspan class="cls-22" x="77.08" y="0">a </tspan><tspan class="cls-23" x="87.3" y="0">r</tspan><tspan class="cls-27" x="92.74" y="0">o</tspan><tspan class="cls-33" x="100.48" y="0">u</tspan><tspan class="cls-27" x="108.43" y="0">e </tspan><tspan class="cls-34" x="118.41" y="0">a</tspan><tspan class="cls-35" x="124.78" y="0">v</tspan><tspan class="cls-27" x="131.77" y="0">a</tspan><tspan class="cls-10" x="138.49" y="0">n</tspan><tspan class="cls-27" x="146.68" y="0">t</tspan><tspan class="cls-37"><tspan class="cls-65" x="0" y="18">v</tspan><tspan class="cls-9" x="6.57" y="18" xml:space="preserve"> : </tspan><tspan class="cls-12" x="17.97" y="18">v</tspan><tspan class="cls-25" x="25.07" y="18">i</tspan><tspan class="cls-21" x="29.04" y="18">t</tspan><tspan class="cls-9" x="33.34" y="18">es</tspan><tspan class="cls-30" x="45.42" y="18">s</tspan><tspan class="cls-9" x="51.07" y="18">e </tspan><tspan class="cls-4" x="61.05" y="18">d</tspan><tspan class="cls-9" x="69.01" y="18">u </tspan><tspan class="cls-30" x="80.52" y="18">v</tspan><tspan class="cls-9" x="87.36" y="18">éh</tspan><tspan class="cls-4" x="101.98" y="18">i</tspan><tspan class="cls-16" x="105.99" y="18">c</tspan><tspan class="cls-9" x="112.53" y="18">u</tspan><tspan class="cls-13" x="120.54" y="18">l</tspan><tspan class="cls-9" x="124.38" y="18">e</tspan></tspan><tspan class="cls-37"><tspan class="cls-65" x="0" y="36">C</tspan><tspan class="cls-9" x="9.46" y="36" xml:space="preserve"> : </tspan><tspan class="cls-5" x="20.87" y="36">C</tspan><tspan class="cls-9" x="31.32" y="36">e</tspan><tspan class="cls-11" x="37.8" y="36">n</tspan><tspan class="cls-7" x="45.99" y="36">t</tspan><tspan class="cls-2" x="50.46" y="36">r</tspan><tspan class="cls-9" x="55.9" y="36">e </tspan><tspan class="cls-4" x="65.88" y="36">d</tspan><tspan class="cls-9" x="73.84" y="36">e gr</tspan><tspan class="cls-26" x="96.43" y="36">a</tspan><tspan class="cls-6" x="102.81" y="36">v</tspan><tspan class="cls-7" x="109.9" y="36">i</tspan><tspan class="cls-21" x="113.88" y="36">t</tspan><tspan class="cls-9" x="118.18" y="36">é</tspan></tspan><tspan class="cls-37"><tspan class="cls-65" x="0" y="54">e</tspan><tspan class="cls-9" x="6.12" y="54" xml:space="preserve"> : d</tspan><tspan class="cls-7" x="25.54" y="54">i</tspan><tspan class="cls-2" x="29.52" y="54">s</tspan><tspan class="cls-9" x="34.98" y="54">ta</tspan><tspan class="cls-4" x="46.26" y="54">n</tspan><tspan class="cls-9" x="54.49" y="54">ce e</tspan><tspan class="cls-11" x="77.37" y="54">n</tspan><tspan class="cls-7" x="85.56" y="54">t</tspan><tspan class="cls-2" x="90.03" y="54">r</tspan><tspan class="cls-9" x="95.47" y="54">e C </tspan><tspan class="cls-18" x="119.26" y="54">e</tspan><tspan class="cls-9" x="125.83" y="54">t </tspan><tspan class="cls-29" x="133.89" y="54">l</tspan><tspan class="cls-9" x="137.71" y="54">a </tspan></tspan><tspan class="cls-27"><tspan class="cls-55" x="0" y="72">t</tspan><tspan x="4.47" y="72">r</tspan><tspan class="cls-56" x="10.05" y="72">a</tspan><tspan x="16.65" y="72">j</tspan><tspan class="cls-50" x="20.5" y="72">e</tspan><tspan class="cls-69" x="27.12" y="72">c</tspan><tspan class="cls-58" x="33.73" y="72">t</tspan><tspan class="cls-55" x="38.04" y="72">o</tspan><tspan x="45.69" y="72">i</tspan><tspan class="cls-36" x="49.75" y="72">r</tspan><tspan x="55.2" y="72">e à </tspan><tspan class="cls-51" x="75.39" y="72">s</tspan><tspan x="80.86" y="72">u</tspan><tspan class="cls-49" x="88.87" y="72">i</tspan><tspan class="cls-59" x="92.88" y="72">v</tspan><tspan class="cls-36" x="99.94" y="72">r</tspan><tspan x="105.39" y="72">e</tspan></tspan><tspan class="cls-66" x="0" y="90">ψ</tspan><tspan class="cls-27" x="9.83" y="90" xml:space="preserve"> : </tspan><tspan class="cls-32" x="21.23" y="90">la</tspan><tspan class="cls-27" x="31.7" y="90">c</tspan><tspan class="cls-20" x="38.12" y="90">e</tspan><tspan class="cls-27" x="44.69" y="90">t (</tspan><tspan class="cls-17" x="58.2" y="90">Y</tspan><tspan class="cls-15" x="65.15" y="90">a</tspan><tspan class="cls-31" x="71.48" y="90">w</tspan><tspan class="cls-27" x="82.04" y="90">)</tspan><tspan class="cls-37"><tspan class="cls-65" x="0" y="108">T </tspan><tspan class="cls-9" x="12.24" y="108">: </tspan><tspan class="cls-19" x="20.15" y="108">p</tspan><tspan class="cls-7" x="28.18" y="108">o</tspan><tspan class="cls-9" x="35.83" y="108">i</tspan><tspan class="cls-11" x="39.9" y="108">n</tspan><tspan class="cls-9" x="48.09" y="108">t </tspan><tspan class="cls-13" x="56.15" y="108">o</tspan><tspan class="cls-9" x="63.83" y="108">bj</tspan><tspan class="cls-5" x="75.48" y="108">e</tspan><tspan class="cls-28" x="82.09" y="108">c</tspan><tspan class="cls-9" x="88.71" y="108">tif (</tspan><tspan class="cls-14" x="110.61" y="108">T</tspan><tspan class="cls-9" x="118.89" y="108">a</tspan><tspan class="cls-24" x="125.61" y="108">r</tspan><tspan class="cls-2" x="131.02" y="108">g</tspan><tspan class="cls-18" x="137.92" y="108">e</tspan><tspan class="cls-9" x="144.49" y="108">t)</tspan></tspan></text><rect class="cls-44" x="246.91" y="80.29" width="48.76" height="21.1"/><text class="cls-38" transform="translate(112.12 131.38)"><tspan x="0" y="0">C</tspan></text><text class="cls-38" transform="translate(191.88 241.71)"><tspan x="0" y="0">P</tspan><tspan class="cls-68" x="11.26" y="0">I</tspan><tspan x="18.24" y="0">D </tspan><tspan class="cls-68" x="37.14" y="0">c</tspan><tspan x="44.94" y="0">o</tspan><tspan class="cls-62" x="54.36" y="0">n</tspan><tspan class="cls-68" x="64.84" y="0">t</tspan><tspan x="70.94" y="0">roller</tspan></text><text class="cls-38" transform="translate(263.74 34.99)"><tspan class="cls-70" x="0" y="0">T</tspan><tspan class="cls-57" x="11.22" y="0">r</tspan><tspan x="18.46" y="0">aje</tspan><tspan class="cls-63" x="42" y="0">c</tspan><tspan x="49.6" y="0">t</tspan><tspan class="cls-68" x="55.6" y="0">o</tspan><tspan x="65.12" y="0">ire </tspan><tspan x="0" y="24">à </tspan><tspan class="cls-56" x="14.7" y="24">s</tspan><tspan class="cls-57" x="21.16" y="24">u</tspan><tspan class="cls-64" x="31.78" y="24">i</tspan><tspan class="cls-61" x="37.12" y="24">v</tspan><tspan x="46.28" y="24">re</tspan></text><path class="cls-46" d="M275.1-1.09c-37.54,22.7-36.99,15.9-66.11,66.09-34.69,59.79-61.62,144-69.64,170.78"/><g><line class="cls-40" x1="141.23" y1="129.93" x2="165.08" y2="134.95"/><path class="cls-60" d="M142.99,130.3l2.89-3.07-.1-.11-6.23,1.07c-2.1,.02-4.19,.04-6.29,.06,1.91,.86,3.82,1.72,5.73,2.59l5.27,3.49,.13-.03-1.4-4Z"/><path class="cls-60" d="M163.32,134.58l-1.4-3.98,.14-.05,5.27,3.49c1.91,.86,3.82,1.72,5.73,2.59-2.1,.02-4.19,.04-6.29,.06l-6.23,1.07-.11-.09,2.89-3.09Z"/></g><text class="cls-38" transform="translate(144.7 150.61)"><tspan class="cls-56" x="0" y="0">e</tspan><tspan x="8" y="0">l</tspan></text><polyline class="cls-40" points="129.41 138.5 141.82 140.74 144.39 130.59"/><line class="cls-39" x1="132.05" y1="128.53" x2="149.82" y2="128.72"/><g><path class="cls-41" d="M148.93,128.89c0-10.18-6.72-13.26-10.79-14.19"/><path class="cls-54" d="M138.79,114.88l.6,1.46-.05,.02-2.04-1.21c-.73-.29-1.46-.58-2.19-.86,.78-.05,1.57-.09,2.35-.14l2.31-.52,.04,.03-1.03,1.21Z"/></g><text class="cls-53" transform="translate(142.89 113.78)"><tspan x="0" y="0">ψ</tspan></text><text class="cls-38" transform="translate(179.85 145.4)"><tspan x="0" y="0">T</tspan></text><path class="cls-54" d="M174.97,139.62c3.22,0,3.22-5,0-5s-3.22,5,0,5h0Z"/></svg>