<?xml version="1.0" encoding="UTF-8"?><svg id="Calque_1" xmlns="http://www.w3.org/2000/svg" viewBox="0 0 595.28 353.33"><defs><style>.cls-1,.cls-2,.cls-3,.cls-4,.cls-5,.cls-6,.cls-7,.cls-8,.cls-9,.cls-10,.cls-11,.cls-12,.cls-13,.cls-14,.cls-15,.cls-16,.cls-17,.cls-18,.cls-19,.cls-20,.cls-21,.cls-22,.cls-23,.cls-24,.cls-25,.cls-26,.cls-27,.cls-28,.cls-29,.cls-30,.cls-31,.cls-32,.cls-33{font-family:MinionVariableConcept-Roman, 'Minion Variable Concept';}.cls-1,.cls-2,.cls-34{letter-spacing:0em;}.cls-1,.cls-3,.cls-35,.cls-7,.cls-8,.cls-11,.cls-15,.cls-16,.cls-36,.cls-20,.cls-22,.cls-37,.cls-25,.cls-26,.cls-29,.cls-30,.cls-31,.cls-32,.cls-33{font-variation-settings:'wght' 400, 'opsz' 11;}.cls-38,.cls-39{stroke-dasharray:0 2;}.cls-38,.cls-39,.cls-40,.cls-41,.cls-42,.cls-43,.cls-44,.cls-45,.cls-46,.cls-47,.cls-48,.cls-49{fill:none;stroke-miterlimit:10;}.cls-38,.cls-39,.cls-41,.cls-45,.cls-47,.cls-48,.cls-49{stroke-width:.75px;}.cls-38,.cls-41,.cls-42,.cls-44,.cls-49{stroke:#1d1d1b;}.cls-50,.cls-51{font-family:SegoeUIVariable, 'Segoe UI Variable';font-variation-settings:'wght' 400, 'opsz' 10;}.cls-3,.cls-4,.cls-52{letter-spacing:0em;}.cls-53{letter-spacing:-.01em;}.cls-54{letter-spacing:.02em;}.cls-39,.cls-40,.cls-48{stroke:#f29100;}.cls-55{letter-spacing:-.02em;}.cls-5,.cls-56{letter-spacing:0em;}.cls-57,.cls-24{letter-spacing:-.01em;}.cls-58,.cls-9{letter-spacing:0em;}.cls-59,.cls-28,.cls-30{letter-spacing:0em;}.cls-60{letter-spacing:0em;}.cls-61,.cls-8{letter-spacing:0em;}.cls-62{font-size:15px;}.cls-62,.cls-36,.cls-51,.cls-37,.cls-63,.cls-64{fill:#1d1d1b;}.cls-65,.cls-17,.cls-20{letter-spacing:0em;}.cls-6,.cls-66,.cls-29{letter-spacing:0em;}.cls-67,.cls-68{letter-spacing:0em;}.cls-7{letter-spacing:.02em;}.cls-69{letter-spacing:0em;}.cls-70{letter-spacing:.01em;}.cls-71{letter-spacing:0em;}.cls-72{letter-spacing:.01em;}.cls-11{letter-spacing:0em;}.cls-73,.cls-22{letter-spacing:-.01em;}.cls-12,.cls-74{letter-spacing:0em;}.cls-75{letter-spacing:.01em;}.cls-13,.cls-76,.cls-31{letter-spacing:0em;}.cls-14{letter-spacing:-.08em;}.cls-15{letter-spacing:-.08em;}.cls-16{letter-spacing:-.03em;}.cls-36{font-size:18px;}.cls-36,.cls-37,.cls-77,.cls-68{font-family:MinionVariableConcept-Italic, 'Minion Variable Concept';}.cls-78{fill:#009540;}.cls-18{letter-spacing:0em;}.cls-19,.cls-79{letter-spacing:0em;}.cls-43,.cls-44{stroke-width:2px;}.cls-43,.cls-47{stroke:#009ee2;}.cls-51,.cls-37,.cls-63{font-size:20px;}.cls-80{fill:#f29100;}.cls-21{letter-spacing:-.02em;}.cls-81{letter-spacing:-.11em;}.cls-82{letter-spacing:.02em;}.cls-83{letter-spacing:0em;}.cls-84{letter-spacing:0em;}.cls-85{letter-spacing:0em;}.cls-23,.cls-86{letter-spacing:-.01em;}.cls-87{letter-spacing:0em;}.cls-88{letter-spacing:-.01em;}.cls-25{letter-spacing:0em;}.cls-89,.cls-63{font-family:MyriadPro-Regular, 'Myriad Pro';}.cls-90{fill:#009ee2;}.cls-27,.cls-91{letter-spacing:.01em;}.cls-45{stroke:#009540;}.cls-46{stroke:#e42320;stroke-width:3px;}.cls-92{letter-spacing:0em;}.cls-93{letter-spacing:0em;}.cls-94{letter-spacing:.01em;}.cls-49{stroke-dasharray:0 0 2.05 2.05;}.cls-95{letter-spacing:0em;}.cls-96{letter-spacing:-.03em;}.cls-32{letter-spacing:-.02em;}.cls-97{letter-spacing:-.02em;}.cls-33{letter-spacing:.01em;}</style></defs><path class="cls-46" d="M295.67-4.13c-37.54,22.7-61.39,50.61-90.51,100.8-34.69,59.79-54.96,118.12-62.98,144.9-12.92,43.17-9.99,82.42-9.97,89.99,.03,7.57-.17,24.13-.17,24.13"/><rect class="cls-42" x="98.56" y="209.03" width="39.9" height="21.55" transform="translate(-121.35 289.27) rotate(-77.82)"/><rect class="cls-42" x="125.91" y="85.58" width="39.9" height="21.55" transform="translate(-23.71 138.86) rotate(-47.52)"/><g><line class="cls-45" x1="145.85" y1="96.36" x2="175.79" y2="63.82"/><path class="cls-78" d="M174.88,64.81l-3.1-.62,.02-.11,4.27-2.06c1.29-.9,2.58-1.8,3.86-2.7-.79,1.36-1.58,2.72-2.37,4.08l-1.7,4.43-.1,.04-.89-3.05Z"/></g><line class="cls-42" x1="118.41" y1="220.25" x2="145.7" y2="96.67"/><g><line class="cls-41" x1="145.7" y1="96.67" x2="145.9" y2="95.69"/><line class="cls-49" x1="146.32" y1="93.68" x2="160.26" y2="26.41"/><line class="cls-41" x1="160.47" y1="25.41" x2="160.67" y2="24.43"/></g><g><path class="cls-47" d="M167.92,72.37c.82-6.5-4.17-9.86-8.65-11.22"/><path class="cls-90" d="M160.58,61.54l1.27,2.9-.1,.05-4.13-2.32c-1.48-.54-2.95-1.08-4.43-1.62,1.57-.13,3.13-.26,4.7-.39l4.6-1.15,.09,.06-1.99,2.47Z"/></g><g><polyline class="cls-44" points="72.63 222.64 72.63 260.65 108.22 260.65"/><path class="cls-64" d="M72.63,224.44l3.6,2.19,.08-.12-2.33-5.88c-.45-2.05-.9-4.09-1.35-6.14-.45,2.05-.9,4.09-1.35,6.14l-2.33,5.88,.06,.12,3.62-2.19Z"/><polygon class="cls-64" points="115.28 260.65 105.33 264.72 107.69 260.65 105.33 256.59 115.28 260.65"/></g><text class="cls-37" transform="translate(81.64 280.35)"><tspan x="0" y="0">x</tspan></text><text class="cls-37" transform="translate(52.94 244.71)"><tspan x="0" y="0">y</tspan></text><text class="cls-63" transform="translate(163.47 58.99)"><tspan x="0" y="0">δ</tspan></text><g><line class="cls-42" x1="96.93" y1="93.21" x2="66.34" y2="194.51"/><path class="cls-64" d="M96.42,94.93l2.82,3.14,.11-.09-.54-6.3c.16-2.09,.32-4.18,.48-6.27-1.02,1.83-2.05,3.66-3.07,5.49l-3.93,4.95,.02,.14,4.1-1.05Z"/><path class="cls-64" d="M66.86,192.79l4.08-1.06,.04,.14-3.93,4.95c-1.02,1.83-2.05,3.66-3.07,5.49,.16-2.09,.32-4.18,.48-6.27l-.53-6.3,.09-.1,2.83,3.15Z"/></g><line class="cls-43" x1="118.41" y1="220.25" x2="215.03" y2="80.03"/><line class="cls-40" x1="342.82" y1="270.08" x2="118.41" y2="220.25"/><line class="cls-40" x1="144.8" y1="96" x2="342.82" y2="270.08"/><path class="cls-80" d="M342.57,275.77c7.72,0,7.73-12,0-12s-7.73,12,0,12h0Z"/><text class="cls-36" transform="translate(354.18 276.58)"><tspan x="0" y="0">C</tspan><tspan class="cls-95" x="11.36" y="0">I</tspan><tspan x="17.64" y="0">R</tspan></text><text class="cls-37" transform="translate(91.45 152.96)"><tspan x="0" y="0">L</tspan></text><text class="cls-37" transform="translate(173.58 229.57)"><tspan x="0" y="0">R</tspan></text><path class="cls-39" d="M120.65,329.55c-6.21-23.74-8.54-48.48-6.99-72.97,1.49-23.46,6.61-46.64,15.14-68.54,8.25-21.16,19.67-41.05,33.76-58.86,13.82-17.47,30.17-32.93,48.41-45.72,18.45-12.94,38.8-23.16,60.22-30.17,3.04-1,6.1-1.93,9.19-2.79"/><text class="cls-62" transform="translate(404.61 25.06)"><tspan class="cls-89" x="0" y="0">δ</tspan><tspan class="cls-26" x="8.19" y="0" xml:space="preserve"> : a</tspan><tspan class="cls-1" x="26.31" y="0">n</tspan><tspan class="cls-26" x="34.47" y="0">g</tspan><tspan class="cls-31" x="41.5" y="0">l</tspan><tspan class="cls-26" x="45.35" y="0">e </tspan><tspan class="cls-3" x="55.32" y="0">d</tspan><tspan class="cls-26" x="63.28" y="0">e </tspan><tspan class="cls-30" x="73.26" y="0">l</tspan><tspan class="cls-25" x="77.08" y="0">a </tspan><tspan class="cls-1" x="87.3" y="0">r</tspan><tspan class="cls-26" x="92.74" y="0">o</tspan><tspan class="cls-31" x="100.48" y="0">u</tspan><tspan class="cls-26" x="108.43" y="0">e </tspan><tspan class="cls-32" x="118.41" y="0">a</tspan><tspan class="cls-33" x="124.78" y="0">v</tspan><tspan class="cls-26" x="131.77" y="0">a</tspan><tspan class="cls-11" x="138.49" y="0">n</tspan><tspan class="cls-26" x="146.68" y="0">t</tspan><tspan class="cls-35"><tspan class="cls-77" x="0" y="18">L </tspan><tspan class="cls-10" x="11.8" y="18">: d</tspan><tspan class="cls-6" x="27.73" y="18">i</tspan><tspan class="cls-2" x="31.71" y="18">s</tspan><tspan class="cls-10" x="37.17" y="18">ta</tspan><tspan class="cls-4" x="48.45" y="18">n</tspan><tspan class="cls-10" x="56.68" y="18">ce i</tspan><tspan class="cls-12" x="77.14" y="18">n</tspan><tspan class="cls-21" x="85.33" y="18">t</tspan><tspan class="cls-10" x="89.64" y="18">er </tspan><tspan class="cls-2" x="105.19" y="18">r</tspan><tspan class="cls-10" x="110.64" y="18">o</tspan><tspan class="cls-13" x="118.38" y="18">u</tspan><tspan class="cls-10" x="126.33" y="18">e</tspan></tspan><tspan class="cls-26"><tspan x="0" y="36">R : r</tspan><tspan class="cls-53" x="26.18" y="36">a</tspan><tspan class="cls-85" x="32.67" y="36">y</tspan><tspan class="cls-66" x="39.52" y="36">o</tspan><tspan x="47.17" y="36">n </tspan><tspan class="cls-76" x="58.96" y="36">d</tspan><tspan x="66.93" y="36">e </tspan><tspan class="cls-66" x="76.9" y="36">b</tspan><tspan x="84.61" y="36">r</tspan><tspan class="cls-59" x="90.19" y="36">a</tspan><tspan class="cls-76" x="96.84" y="36">q</tspan><tspan x="104.61" y="36">u</tspan><tspan class="cls-34" x="112.62" y="36">ag</tspan><tspan x="126.1" y="36">e </tspan><tspan class="cls-52" x="136.08" y="36">d</tspan><tspan x="144.04" y="36">e </tspan></tspan><tspan class="cls-26"><tspan class="cls-59" x="0" y="54">l</tspan><tspan x="3.83" y="54">a </tspan><tspan class="cls-61" x="14.04" y="54">v</tspan><tspan class="cls-66" x="20.88" y="54">oi</tspan><tspan class="cls-73" x="32.51" y="54">t</tspan><tspan x="36.86" y="54">u</tspan><tspan class="cls-34" x="44.87" y="54">r</tspan><tspan x="50.31" y="54">e</tspan></tspan><tspan class="cls-26"><tspan class="cls-71" x="0" y="72">C</tspan><tspan class="cls-70" x="10.44" y="72">I</tspan><tspan x="15.97" y="72">R : </tspan><tspan class="cls-56" x="36.57" y="72">C</tspan><tspan x="47.02" y="72">e</tspan><tspan class="cls-74" x="53.5" y="72">n</tspan><tspan class="cls-66" x="61.69" y="72">t</tspan><tspan class="cls-34" x="66.16" y="72">r</tspan><tspan x="71.61" y="72">e </tspan><tspan class="cls-96" x="81.58" y="72">I</tspan><tspan class="cls-86" x="86.53" y="72">n</tspan><tspan class="cls-34" x="94.66" y="72">s</tspan><tspan x="100.12" y="72">ta</tspan><tspan class="cls-74" x="111.4" y="72">n</tspan><tspan x="119.59" y="72">ta</tspan><tspan class="cls-52" x="130.87" y="72">n</tspan><tspan x="139.11" y="72">é </tspan></tspan><tspan class="cls-26"><tspan class="cls-76" x="0" y="90">d</tspan><tspan x="7.96" y="90">e </tspan><tspan class="cls-54" x="17.94" y="90">R</tspan><tspan x="27.48" y="90">ot</tspan><tspan class="cls-57" x="39.78" y="90">a</tspan><tspan x="46.35" y="90">t</tspan><tspan class="cls-76" x="50.91" y="90">i</tspan><tspan class="cls-66" x="54.91" y="90">o</tspan><tspan x="62.56" y="90">n </tspan></tspan><tspan class="cls-35"><tspan class="cls-77" x="0" y="108">T </tspan><tspan class="cls-10" x="12.24" y="108">: </tspan><tspan class="cls-19" x="20.15" y="108">p</tspan><tspan class="cls-6" x="28.18" y="108">o</tspan><tspan class="cls-10" x="35.83" y="108">i</tspan><tspan class="cls-12" x="39.9" y="108">n</tspan><tspan class="cls-10" x="48.09" y="108">t </tspan><tspan class="cls-13" x="56.14" y="108">o</tspan><tspan class="cls-10" x="63.83" y="108">bj</tspan><tspan class="cls-5" x="75.48" y="108">e</tspan><tspan class="cls-27" x="82.09" y="108">c</tspan><tspan class="cls-10" x="88.71" y="108">tif (</tspan><tspan class="cls-14" x="110.61" y="108">T</tspan><tspan class="cls-10" x="118.89" y="108">a</tspan><tspan class="cls-23" x="125.61" y="108">r</tspan><tspan class="cls-2" x="131.02" y="108">g</tspan><tspan class="cls-17" x="137.92" y="108">e</tspan><tspan class="cls-10" x="144.49" y="108">t)</tspan></tspan><tspan class="cls-35"><tspan class="cls-77" x="0" y="126">E </tspan><tspan class="cls-10" x="12.04" y="126">: </tspan><tspan class="cls-19" x="19.95" y="126">p</tspan><tspan class="cls-6" x="27.99" y="126">o</tspan><tspan class="cls-10" x="35.64" y="126">i</tspan><tspan class="cls-12" x="39.7" y="126">n</tspan><tspan class="cls-10" x="47.89" y="126">t er</tspan><tspan class="cls-2" x="68.01" y="126">r</tspan><tspan class="cls-18" x="73.45" y="126">e</tspan><tspan class="cls-10" x="80.04" y="126">ur</tspan></tspan><tspan class="cls-35"><tspan class="cls-68" x="0" y="144">e</tspan><tspan class="cls-77" x="6" y="144">l </tspan><tspan class="cls-10" x="13.3" y="144">: er</tspan><tspan class="cls-2" x="33.27" y="144">r</tspan><tspan class="cls-18" x="38.71" y="144">e</tspan><tspan class="cls-10" x="45.3" y="144">ur </tspan><tspan class="cls-9" x="62.38" y="144">l</tspan><tspan class="cls-24" x="66.21" y="144">a</tspan><tspan class="cls-21" x="72.78" y="144">t</tspan><tspan class="cls-10" x="77.08" y="144">eral e</tspan><tspan class="cls-12" x="109.74" y="144">n</tspan><tspan class="cls-6" x="117.93" y="144">t</tspan><tspan class="cls-2" x="122.4" y="144">r</tspan><tspan class="cls-10" x="127.84" y="144">e </tspan><tspan class="cls-28" x="137.82" y="144">l</tspan><tspan class="cls-10" x="141.64" y="144">a </tspan></tspan><tspan class="cls-26"><tspan class="cls-79" x="0" y="162">v</tspan><tspan class="cls-66" x="6.84" y="162">oi</tspan><tspan class="cls-73" x="18.47" y="162">t</tspan><tspan x="22.82" y="162">u</tspan><tspan class="cls-34" x="30.83" y="162">r</tspan><tspan x="36.27" y="162">e </tspan><tspan class="cls-65" x="46.25" y="162">e</tspan><tspan x="52.81" y="162">t </tspan><tspan class="cls-55" x="60.87" y="162">l</tspan><tspan class="cls-81" x="64.5" y="162">’</tspan><tspan class="cls-76" x="66.06" y="162">o</tspan><tspan x="73.74" y="162">bj</tspan><tspan class="cls-56" x="85.39" y="162">e</tspan><tspan class="cls-91" x="92.01" y="162">c</tspan><tspan x="98.62" y="162">tif</tspan></tspan><tspan class="cls-35"><tspan class="cls-77" x="0" y="180">d </tspan><tspan class="cls-10" x="11.33" y="180">: d</tspan><tspan class="cls-6" x="27.25" y="180">i</tspan><tspan class="cls-2" x="31.23" y="180">s</tspan><tspan class="cls-10" x="36.69" y="180">ta</tspan><tspan class="cls-4" x="47.97" y="180">n</tspan><tspan class="cls-10" x="56.2" y="180">ce e</tspan><tspan class="cls-12" x="79.08" y="180">n</tspan><tspan class="cls-6" x="87.27" y="180">t</tspan><tspan class="cls-2" x="91.74" y="180">r</tspan><tspan class="cls-10" x="97.18" y="180">e </tspan><tspan class="cls-28" x="107.16" y="180">l</tspan><tspan class="cls-10" x="110.98" y="180">a </tspan><tspan class="cls-2" x="121.2" y="180">r</tspan><tspan class="cls-10" x="126.64" y="180">o</tspan><tspan class="cls-13" x="134.38" y="180">u</tspan><tspan class="cls-10" x="142.33" y="180">e </tspan></tspan><tspan class="cls-26"><tspan x="0" y="198">ar</tspan><tspan class="cls-71" x="12.3" y="198">r</tspan><tspan class="cls-52" x="18" y="198">i</tspan><tspan x="22" y="198">e</tspan><tspan class="cls-34" x="28.48" y="198">r</tspan><tspan x="33.93" y="198">e </tspan><tspan class="cls-65" x="43.9" y="198">e</tspan><tspan x="50.47" y="198">t </tspan><tspan class="cls-55" x="58.53" y="198">l</tspan><tspan class="cls-81" x="62.16" y="198">’</tspan><tspan class="cls-76" x="63.72" y="198">o</tspan><tspan x="71.4" y="198">bj</tspan><tspan class="cls-56" x="83.05" y="198">e</tspan><tspan class="cls-94" x="89.67" y="198">c</tspan><tspan x="96.28" y="198">tif (</tspan><tspan class="cls-52" x="118.18" y="198">l</tspan><tspan class="cls-61" x="122.02" y="198">o</tspan><tspan x="129.82" y="198">ok </tspan></tspan><tspan class="cls-26"><tspan x="0" y="216">a</tspan><tspan class="cls-76" x="6.72" y="216">h</tspan><tspan class="cls-84" x="14.8" y="216">e</tspan><tspan class="cls-58" x="21.36" y="216">a</tspan><tspan x="28" y="216">d d</tspan><tspan class="cls-60" x="47.55" y="216">i</tspan><tspan class="cls-34" x="51.52" y="216">s</tspan><tspan x="56.98" y="216">ta</tspan><tspan class="cls-76" x="68.26" y="216">n</tspan><tspan x="76.5" y="216">c</tspan><tspan class="cls-72" x="82.92" y="216">e</tspan><tspan x="89.55" y="216">)</tspan></tspan><tspan class="cls-89" x="0" y="234">ψ</tspan><tspan class="cls-26" x="9.83" y="234" xml:space="preserve"> : </tspan><tspan class="cls-30" x="21.23" y="234">la</tspan><tspan class="cls-26" x="31.7" y="234">c</tspan><tspan class="cls-20" x="38.12" y="234">e</tspan><tspan class="cls-26" x="44.69" y="234">t (</tspan><tspan class="cls-15" x="58.2" y="234">Y</tspan><tspan class="cls-16" x="65.15" y="234">a</tspan><tspan class="cls-7" x="71.47" y="234">w</tspan><tspan class="cls-26" x="82.04" y="234">)</tspan><tspan class="cls-50" x="0" y="252">α </tspan><tspan class="cls-26" x="13.32" y="252">: a</tspan><tspan class="cls-1" x="27.95" y="252">n</tspan><tspan class="cls-26" x="36.11" y="252">g</tspan><tspan class="cls-31" x="43.14" y="252">l</tspan><tspan class="cls-26" x="46.98" y="252">e e</tspan><tspan class="cls-11" x="63.44" y="252">n</tspan><tspan class="cls-29" x="71.63" y="252">t</tspan><tspan class="cls-1" x="76.1" y="252">r</tspan><tspan class="cls-26" x="81.54" y="252">e </tspan><tspan class="cls-30" x="91.52" y="252">l</tspan><tspan class="cls-26" x="95.34" y="252">a </tspan><tspan class="cls-8" x="105.56" y="252">v</tspan><tspan class="cls-29" x="112.4" y="252">oi</tspan><tspan class="cls-22" x="124.02" y="252">t</tspan><tspan class="cls-26" x="128.37" y="252">u</tspan><tspan class="cls-1" x="136.38" y="252">r</tspan><tspan class="cls-26" x="141.83" y="252">e </tspan><tspan class="cls-26"><tspan class="cls-65" x="0" y="270">e</tspan><tspan x="6.57" y="270">t </tspan><tspan class="cls-55" x="14.62" y="270">l</tspan><tspan class="cls-81" x="18.25" y="270">’</tspan><tspan class="cls-76" x="19.81" y="270">o</tspan><tspan x="27.5" y="270">bj</tspan><tspan class="cls-56" x="39.15" y="270">e</tspan><tspan class="cls-91" x="45.76" y="270">c</tspan><tspan x="52.38" y="270">tif</tspan></tspan></text><text class="cls-37" transform="translate(177.62 114.5)"><tspan x="0" y="0">d</tspan></text><g><path class="cls-41" d="M145.7,180c-1.03-8.04-8.87-9.31-13.31-9.37"/><path class="cls-64" d="M133.06,170.67l.86,1.33-.05,.03-2.23-.81c-.77-.15-1.54-.29-2.32-.44,.76-.19,1.52-.38,2.29-.57l2.18-.94,.05,.02-.78,1.38Z"/></g><text class="cls-51" transform="translate(135.28 166.67)"><tspan x="0" y="0">α</tspan></text><line class="cls-40" x1="215.03" y1="80.03" x2="342.82" y2="270.08"/><g><line class="cls-42" x1="159.88" y1="68.42" x2="207.05" y2="78.35"/><path class="cls-64" d="M161.64,68.79l2.89-3.07-.1-.11-6.23,1.07c-2.1,.02-4.19,.04-6.29,.06,1.91,.86,3.82,1.72,5.73,2.59l5.27,3.49,.13-.03-1.4-4Z"/><path class="cls-64" d="M205.29,77.98l-1.4-3.98,.14-.05,5.27,3.49c1.91,.86,3.82,1.72,5.73,2.59-2.1,.02-4.19,.04-6.29,.06l-6.23,1.07-.11-.09,2.89-3.09Z"/></g><polyline class="cls-41" points="150.73 72.37 156.78 73.38 158.04 68.03"/><text class="cls-37" transform="translate(172.28 89.27)"><tspan class="cls-67" x="0" y="0">e</tspan><tspan x="8" y="0">l</tspan></text><text class="cls-51" transform="translate(235.58 232.15)"><tspan x="0" y="0">2α</tspan></text><text class="cls-63" transform="translate(276.79 253.09)"><tspan x="0" y="0">δ</tspan></text><g><path class="cls-42" d="M295.67,259.61c-3.45-8.95,1.97-14.6,6.62-17.62"/><path class="cls-64" d="M301.16,242.74l-2.71-1.63,.05-.1,4.71-.5c1.52-.42,3.03-.83,4.55-1.25-1.2,1.01-2.4,2.03-3.6,3.04l-3.08,3.6h-.1s.19-3.17,.19-3.17Z"/></g><g><path class="cls-42" d="M259.86,251.66c-1.9-31.31,22.05-41.71,33.56-44.88"/><path class="cls-64" d="M292.12,207.14l-2.2-2.27,.08-.08,4.68,.73c1.57,0,3.14-.02,4.72-.03-1.42,.67-2.85,1.34-4.27,2.01l-3.91,2.68-.1-.02,1-3.01Z"/></g><text class="cls-37" transform="translate(208.01 74.52)"><tspan x="0" y="0">T</tspan></text><text class="cls-37" transform="translate(282.8 20.55)"><tspan class="cls-97" x="0" y="0">T</tspan><tspan class="cls-69" x="11.22" y="0">r</tspan><tspan x="18.46" y="0">aje</tspan><tspan class="cls-83" x="42" y="0">c</tspan><tspan x="49.6" y="0">t</tspan><tspan class="cls-93" x="55.6" y="0">o</tspan><tspan x="65.12" y="0">ire </tspan><tspan x="0" y="24">à </tspan><tspan class="cls-67" x="14.7" y="24">s</tspan><tspan class="cls-69" x="21.16" y="24">u</tspan><tspan class="cls-87" x="31.78" y="24">i</tspan><tspan class="cls-82" x="37.12" y="24">v</tspan><tspan x="46.28" y="24">re</tspan></text><text class="cls-37" transform="translate(182.08 342.12)"><tspan class="cls-75" x="0" y="0">P</tspan><tspan class="cls-92" x="11.52" y="0">u</tspan><tspan x="22.18" y="0">r </tspan><tspan class="cls-75" x="34.2" y="0">P</tspan><tspan class="cls-92" x="45.72" y="0">u</tspan><tspan class="cls-71" x="56.38" y="0">r</tspan><tspan class="cls-67" x="63.9" y="0">s</tspan><tspan class="cls-69" x="70.36" y="0">ui</tspan><tspan x="86.34" y="0">t </tspan><tspan class="cls-93" x="97" y="0">c</tspan><tspan x="104.8" y="0">o</tspan><tspan class="cls-88" x="114.22" y="0">n</tspan><tspan class="cls-93" x="124.7" y="0">t</tspan><tspan x="130.8" y="0">roller</tspan></text><text class="cls-37" transform="translate(135.28 67.63)"><tspan x="0" y="0">E</tspan></text><path class="cls-64" d="M133.25,155.46c3.22,0,3.22-5,0-5s-3.22,5,0,5h0Z"/><path class="cls-64" d="M151.9,69.24c3.22,0,3.22-5,0-5s-3.22,5,0,5h0Z"/><path class="cls-64" d="M215.03,82.53c3.22,0,3.22-5,0-5s-3.22,5,0,5h0Z"/><text class="cls-37" transform="translate(278.92 173.76)"><tspan x="0" y="0">R</tspan></text><text class="cls-37" transform="translate(116.1 154.48)"><tspan x="0" y="0">C</tspan></text><line class="cls-48" x1="154.02" y1="95.68" x2="149.09" y2="92.01"/><line class="cls-48" x1="150.6" y1="100.29" x2="154.02" y2="95.68"/><line class="cls-48" x1="125.52" y1="215.59" x2="119.61" y2="214.24"/><line class="cls-48" x1="124.18" y1="220.86" x2="125.52" y2="215.59"/><g><path class="cls-42" d="M224.32,93.84c-4.61,6.21-9.64,4.78-13.12,2.38"/><path class="cls-64" d="M212.33,96.99l-.58,3.11-.11-.02-2.11-4.24c-.92-1.28-1.84-2.55-2.75-3.83,1.37,.77,2.74,1.55,4.11,2.32l4.45,1.64,.04,.1-3.04,.93Z"/></g><text class="cls-51" transform="translate(230.62 104.31)"><tspan x="0" y="0">90-α</tspan></text><line class="cls-38" x1="131.68" y1="153.41" x2="149.44" y2="153.6"/><g><path class="cls-41" d="M148.55,153.77c0-10.18-6.72-13.26-10.79-14.19"/><path class="cls-64" d="M138.41,139.76l.6,1.46-.05,.02-2.04-1.21c-.73-.29-1.46-.58-2.19-.86,.78-.05,1.57-.09,2.35-.14l2.31-.52,.04,.03-1.03,1.21Z"/></g><text class="cls-63" transform="translate(141.17 140.58)"><tspan x="0" y="0">ψ</tspan></text></svg>