<?xml version="1.0" encoding="UTF-8"?><svg id="Calque_1" xmlns="http://www.w3.org/2000/svg" viewBox="0 0 610.8 274"><defs><style>.cls-1{fill:#676767;}.cls-1,.cls-2{stroke:#000;}.cls-1,.cls-2,.cls-3,.cls-4{stroke-miterlimit:10;}.cls-5{fill:#60b13c;}.cls-6{letter-spacing:0em;}.cls-7{letter-spacing:0em;}.cls-8{letter-spacing:0em;}.cls-9{letter-spacing:0em;}.cls-10{letter-spacing:0em;}.cls-11{letter-spacing:0em;}.cls-12{font-family:MinionVariableConcept-Roman, 'Minion Variable Concept';font-size:15px;}.cls-12,.cls-13{font-variation-settings:'wght' 400, 'opsz' 11;}.cls-12,.cls-13,.cls-14,.cls-15{fill:#1d1d1b;}.cls-16{letter-spacing:0em;}.cls-17{stroke:#e42320;stroke-dasharray:0 0 .1 11.94;}.cls-17,.cls-2,.cls-3,.cls-18,.cls-19,.cls-4{fill:none;}.cls-17,.cls-18,.cls-19{stroke-linejoin:round;stroke-width:4px;}.cls-17,.cls-18,.cls-19,.cls-4{stroke-linecap:round;}.cls-20{letter-spacing:-.07em;}.cls-21{letter-spacing:-.02em;}.cls-22{letter-spacing:0em;}.cls-23{letter-spacing:-.01em;}.cls-24{letter-spacing:0em;}.cls-25{fill:#e63332;}.cls-2,.cls-3,.cls-4{stroke-width:2px;}.cls-26{letter-spacing:0em;}.cls-27{letter-spacing:0em;}.cls-28{letter-spacing:0em;}.cls-3{stroke:#1d1d1b;}.cls-18{stroke-dasharray:0 0 .1 20.5;}.cls-18,.cls-19{stroke:#e63332;}.cls-13{font-family:MinionVariableConcept-Italic, 'Minion Variable Concept';}.cls-13,.cls-14{font-size:20px;}.cls-29{letter-spacing:0em;}.cls-30{letter-spacing:0em;}.cls-31{letter-spacing:0em;}.cls-32{letter-spacing:.01em;}.cls-33{letter-spacing:.02em;}.cls-34{letter-spacing:0em;}.cls-35{letter-spacing:.01em;}.cls-14{font-family:MyriadPro-Regular, 'Myriad Pro';}.cls-4{stroke:#60b13c;}</style></defs><path class="cls-17" d="M46.63,137.22s-.1-.44-.27-1.27c-2.32-10.76-14.52-83.42-15.55-96.19-.87-10.77,5.96-45.01,61.91-21.16,55.95,23.85,26.14,62.51,16.82,68.78-10.45,7.02-53.73,26.9-11.77,25.99,41.96-.92,60.22-54.19,70.17-46.55,12.84,9.86,33.32,24.84,43.8,37.38,11.85,14.18-48.99,21.21-53.89,41.96-5.2,22.07,46.47,54.34,46.47,54.34,0,0,34.47,20.41,10.17,29.35-24.31,8.94-118.7,8.41-123.29-7.64-4.59-16.05,36.99-29.66,34.78-43.72-2.26-14.36-19.26-41.73-48.38-32.33-29.12,9.4-30.96-8.94-30.96-8.94Z"/><rect class="cls-1" x="201.48" y="174.29" width="6.42" height="11.01" transform="translate(-67.73 183.17) rotate(-42.01)"/><rect class="cls-1" x="377.44" y="176.63" width="21.63" height="37.09" transform="translate(-42.53 252.22) rotate(-34.23)"/><rect class="cls-2" x="145" y="122.01" width="88.97" height="79.8"/><g><path class="cls-19" d="M344.51,216s0-.01-.03-.04"/><path class="cls-18" d="M332.16,199.58c-11.29-15.99-26.12-39.91-25.26-54.2,1.11-18.54,51.99-69.45,71.43-88.27"/><path class="cls-19" d="M385.75,50.02s.03-.03,.03-.03"/></g><g><path class="cls-4" d="M381.35,186.34c-7.53-9.86-20.83-14.46-30.55-16.58"/><path class="cls-5" d="M338.85,168c5.94-1.19,13.46-3.64,18.37-6.72l-4.89,8.86,1.91,9.93c-3.72-4.45-10.12-9.1-15.4-12.07Z"/></g><text class="cls-14" transform="translate(368.37 153.77)"><tspan x="0" y="0">?</tspan></text><text class="cls-14" transform="translate(197.43 160.15)"><tspan x="0" y="0">?</tspan></text><text class="cls-13" transform="translate(262.23 264.1)"><tspan class="cls-33" x="0" y="0">S</tspan><tspan class="cls-28" x="9.7" y="0">c</tspan><tspan x="17.3" y="0">hé</tspan><tspan class="cls-30" x="35.88" y="0">m</tspan><tspan x="51.78" y="0">a gl</tspan><tspan class="cls-34" x="80.04" y="0">o</tspan><tspan x="89.38" y="0">b</tspan><tspan class="cls-24" x="99.22" y="0">a</tspan><tspan x="109.34" y="0">l</tspan></text><text class="cls-12" transform="translate(465.12 77.71)"><tspan class="cls-20" x="0" y="0">V</tspan><tspan class="cls-22" x="8.31" y="0">oi</tspan><tspan class="cls-23" x="19.93" y="0">t</tspan><tspan x="24.28" y="0">u</tspan><tspan class="cls-31" x="32.29" y="0">r</tspan><tspan x="37.74" y="0">e</tspan><tspan class="cls-26" x="0" y="18">C</tspan><tspan class="cls-27" x="10.46" y="18">o</tspan><tspan class="cls-22" x="18.25" y="18">o</tspan><tspan class="cls-31" x="25.91" y="18">r</tspan><tspan class="cls-29" x="31.35" y="18">d</tspan><tspan class="cls-22" x="39.32" y="18">o</tspan><tspan x="46.97" y="18">n</tspan><tspan class="cls-10" x="55.26" y="18">n</tspan><tspan class="cls-26" x="63.5" y="18">é</tspan><tspan x="70.11" y="18">es </tspan><tspan class="cls-29" x="85.68" y="18">d</tspan><tspan x="93.64" y="18">e </tspan><tspan class="cls-7" x="103.62" y="18">l</tspan><tspan x="107.44" y="18">a </tspan><tspan class="cls-22" x="0" y="36">t</tspan><tspan x="4.47" y="36">r</tspan><tspan class="cls-16" x="10.05" y="36">a</tspan><tspan x="16.65" y="36">j</tspan><tspan class="cls-26" x="20.5" y="36">e</tspan><tspan class="cls-32" x="27.12" y="36">c</tspan><tspan class="cls-21" x="33.73" y="36">t</tspan><tspan class="cls-22" x="38.04" y="36">o</tspan><tspan x="45.69" y="36">i</tspan><tspan class="cls-31" x="49.75" y="36">r</tspan><tspan x="55.2" y="36">e optim</tspan><tspan class="cls-22" x="101.77" y="36">i</tspan><tspan class="cls-9" x="105.75" y="36">s</tspan><tspan class="cls-26" x="111.4" y="36">é</tspan><tspan x="118.02" y="36">e</tspan><tspan class="cls-35" x="0" y="54">D</tspan><tspan x="11.4" y="54">i</tspan><tspan class="cls-31" x="15.46" y="54">r</tspan><tspan class="cls-26" x="20.91" y="54">e</tspan><tspan class="cls-32" x="27.52" y="54">c</tspan><tspan x="34.14" y="54">t</tspan><tspan class="cls-29" x="38.7" y="54">i</tspan><tspan class="cls-8" x="42.7" y="54">o</tspan><tspan x="50.35" y="54">n où </tspan><tspan class="cls-6" x="81.39" y="54">l</tspan><tspan x="85.21" y="54">a </tspan><tspan class="cls-27" x="95.43" y="54">v</tspan><tspan class="cls-22" x="102.27" y="54">oi</tspan><tspan class="cls-23" x="113.89" y="54">t</tspan><tspan x="118.24" y="54">u</tspan><tspan class="cls-31" x="126.25" y="54">r</tspan><tspan x="131.7" y="54">e </tspan><tspan class="cls-29" x="0" y="72">d</tspan><tspan class="cls-8" x="7.96" y="72">oi</tspan><tspan x="19.59" y="72">t a</tspan><tspan class="cls-11" x="34.36" y="72">l</tspan><tspan class="cls-29" x="38.35" y="72">l</tspan><tspan x="42.2" y="72">er</tspan></text><rect class="cls-1" x="449.51" y="68.47" width="7.38" height="12.66"/><g><path class="cls-4" d="M459.8,139.97c-5.38-7.05-15.3-9.97-21.68-11.16"/><path class="cls-5" d="M432.14,128.03c2.96-.66,6.69-1.97,9.11-3.56l-2.35,4.48,1.06,4.94c-1.91-2.18-5.16-4.44-7.83-5.86Z"/></g><path class="cls-25" d="M451.89,104.56c3.22,0,3.22-5,0-5s-3.22,5,0,5h0Z"/><g><polyline class="cls-3" points="26.56 209.96 26.56 247.98 62.15 247.98"/><path class="cls-15" d="M26.56,211.76l3.6,2.19,.08-.12-2.33-5.88c-.45-2.05-.9-4.09-1.35-6.14-.45,2.05-.9,4.09-1.35,6.14l-2.33,5.88,.06,.12,3.62-2.19Z"/><polygon class="cls-15" points="69.21 247.98 59.26 252.04 61.62 247.98 59.26 243.91 69.21 247.98"/></g><text class="cls-13" transform="translate(35.57 267.68)"><tspan x="0" y="0">x</tspan></text><text class="cls-13" transform="translate(6.87 232.03)"><tspan x="0" y="0">y</tspan></text></svg>