<?xml version="1.0" encoding="UTF-8"?><svg id="Calque_2" xmlns="http://www.w3.org/2000/svg" viewBox="0 0 537.56 325.3"><defs><style>.cls-1,.cls-2,.cls-3,.cls-4,.cls-5,.cls-6,.cls-7,.cls-8,.cls-9,.cls-10,.cls-11,.cls-12,.cls-13,.cls-14,.cls-15,.cls-16,.cls-17,.cls-18{font-family:MinionVariableConcept-Roman, 'Minion Variable Concept';}.cls-1,.cls-2,.cls-19{letter-spacing:0em;}.cls-1,.cls-3,.cls-20,.cls-7,.cls-10,.cls-11,.cls-21,.cls-12,.cls-22,.cls-14,.cls-15,.cls-17,.cls-18{font-variation-settings:'wght' 400, 'opsz' 11;}.cls-23{stroke-dasharray:0 2;}.cls-23,.cls-24,.cls-25,.cls-26,.cls-27,.cls-28,.cls-29,.cls-30,.cls-31,.cls-32,.cls-33,.cls-34{fill:none;stroke-miterlimit:10;}.cls-23,.cls-24,.cls-27,.cls-29,.cls-32,.cls-33{stroke-width:.75px;}.cls-23,.cls-27,.cls-30,.cls-33{stroke:#1d1d1b;}.cls-24,.cls-31{stroke:#f39200;}.cls-3,.cls-4,.cls-35{letter-spacing:0em;}.cls-36{fill:#009640;}.cls-37{letter-spacing:-.02em;}.cls-38{letter-spacing:.02em;}.cls-39{letter-spacing:0em;}.cls-25{stroke:#000;}.cls-26{stroke:#575656;stroke-width:2px;}.cls-40{letter-spacing:.01em;}.cls-41{font-size:15px;}.cls-41,.cls-21,.cls-22,.cls-42,.cls-43{fill:#1d1d1b;}.cls-5{letter-spacing:.02em;}.cls-44{fill:#f39200;}.cls-45{letter-spacing:-.11em;}.cls-6,.cls-46{letter-spacing:0em;}.cls-47{letter-spacing:0em;}.cls-7{letter-spacing:.02em;}.cls-48{letter-spacing:.01em;}.cls-28,.cls-29,.cls-34{stroke:#009fe3;}.cls-49{letter-spacing:.04em;}.cls-50{letter-spacing:0em;}.cls-8{letter-spacing:0em;}.cls-51{fill:#009fe3;}.cls-52,.cls-21,.cls-22,.cls-53{font-family:MinionVariableConcept-Italic, 'Minion Variable Concept';}.cls-52,.cls-54{letter-spacing:.03em;}.cls-55{letter-spacing:.01em;}.cls-10{letter-spacing:-.08em;}.cls-11{letter-spacing:-.03em;}.cls-21{font-size:18px;}.cls-56{letter-spacing:0em;}.cls-57{letter-spacing:0em;}.cls-12{letter-spacing:0em;}.cls-13{letter-spacing:-.02em;}.cls-32{stroke:#009640;}.cls-58{letter-spacing:0em;}.cls-22,.cls-42{font-size:20px;}.cls-14{letter-spacing:0em;}.cls-59,.cls-42{font-family:MyriadPro-Regular, 'Myriad Pro';}.cls-60,.cls-18{letter-spacing:0em;}.cls-61{letter-spacing:0em;}.cls-62{letter-spacing:0em;}.cls-16{letter-spacing:0em;}.cls-63{letter-spacing:.02em;}.cls-64{letter-spacing:-.01em;}.cls-65{letter-spacing:.01em;}.cls-66{letter-spacing:-.02em;}.cls-67{letter-spacing:0em;}.cls-17{letter-spacing:0em;}.cls-33{stroke-dasharray:0 0 2.05 2.05;}.cls-68{letter-spacing:0em;}.cls-69{letter-spacing:-.03em;}.cls-34{stroke-dasharray:0 0 1.98 1.98;}</style></defs><g id="Calque_1-2"><rect class="cls-26" x="1" y="33.51" width="142.17" height="194.9"/><rect class="cls-25" x="13.84" y="177.51" width="21.55" height="39.9"/><rect class="cls-25" x="110.15" y="177.51" width="21.55" height="39.9"/><rect class="cls-28" x="61.31" y="177.51" width="21.55" height="39.9"/><rect class="cls-25" x="4.67" y="57.82" width="39.9" height="21.55" transform="translate(-47.91 61.42) rotate(-64.61)"/><rect class="cls-25" x="100.97" y="60.25" width="39.9" height="21.55" transform="translate(-7.07 128.33) rotate(-54.55)"/><rect class="cls-28" x="52.82" y="60.25" width="39.9" height="21.55" transform="translate(-25.27 98.02) rotate(-59.7)"/><line class="cls-31" x1="304.13" y1="197.46" x2="24.62" y2="197.46"/><g><line class="cls-32" x1="24.62" y1="196.89" x2="24.62" y2="152.67"/><path class="cls-36" d="M24.62,154.02l-2.7,1.64-.06-.09,1.75-4.41c.34-1.54,.68-3.07,1.01-4.61,.34,1.54,.68,3.07,1.01,4.61l1.75,4.41-.05,.09-2.72-1.64Z"/></g><g><line class="cls-32" x1="72.08" y1="147.13" x2="72.08" y2="191.35"/><path class="cls-36" d="M72.08,190l2.7-1.64,.06,.09-1.75,4.41c-.34,1.54-.68,3.07-1.01,4.61-.34-1.54-.68-3.07-1.01-4.61l-1.75-4.41,.05-.09,2.72,1.64Z"/></g><g><line class="cls-32" x1="120.92" y1="197.46" x2="120.92" y2="153.25"/><path class="cls-36" d="M120.92,154.59l-2.7,1.64-.06-.09,1.75-4.41c.34-1.54,.68-3.07,1.01-4.61,.34,1.54,.68,3.07,1.01,4.61l1.75,4.41-.05,.09-2.72-1.64Z"/></g><polyline class="cls-24" points="31.19 197.46 31.19 189.74 24.62 189.74"/><polyline class="cls-24" points="78.12 197.46 78.12 191.19 72.08 191.19"/><polyline class="cls-24" points="126.12 197.46 126.12 191.96 120.92 191.96"/><polyline class="cls-31" points="72.77 71.03 304.13 197.46 24.62 68.6"/><line class="cls-31" x1="120.92" y1="71.03" x2="304.13" y2="197.46"/><g><line class="cls-32" x1="24.62" y1="68.81" x2="43.13" y2="28.65"/><path class="cls-36" d="M42.57,29.87l-3.14,.36-.02-.11,3.43-3.27c.95-1.25,1.9-2.51,2.85-3.76-.34,1.54-.67,3.07-1.01,4.61l-.26,4.73-.08,.06-1.78-2.63Z"/></g><g><line class="cls-32" x1="72.77" y1="71.03" x2="95.17" y2="32.9"/><path class="cls-36" d="M94.49,34.06l-3.16,.05v-.11s3.73-2.91,3.73-2.91c1.07-1.15,2.14-2.31,3.21-3.46-.49,1.49-.97,2.99-1.46,4.48l-.72,4.69-.09,.06-1.51-2.79Z"/></g><g><line class="cls-32" x1="120.92" y1="71.03" x2="146.98" y2="35.3"/><path class="cls-36" d="M146.19,36.39l-3.15-.26v-.11s4.02-2.53,4.02-2.53c1.18-1.04,2.35-2.08,3.53-3.12-.63,1.44-1.26,2.88-1.9,4.32l-1.18,4.59-.09,.05-1.23-2.93Z"/></g><polyline class="cls-24" points="30.53 71.32 33.33 65.04 27.6 62.34"/><polyline class="cls-24" points="77.03 73.36 79.65 68.6 75.72 66.01"/><polyline class="cls-24" points="125.65 74.29 129.06 69.68 124.13 66.01"/><path class="cls-44" d="M301.08,201.09c7.72,0,7.73-12,0-12s-7.73,12,0,12h0Z"/><text class="cls-21" transform="translate(272.24 165.34)"><tspan x="0" y="0">C</tspan><tspan class="cls-68" x="11.36" y="0">I</tspan><tspan x="17.64" y="0">R</tspan></text><g><line class="cls-28" x1="72.08" y1="197.92" x2="72.09" y2="196.92"/><line class="cls-34" x1="72.1" y1="194.94" x2="72.67" y2="73.36"/><line class="cls-28" x1="72.68" y1="72.37" x2="72.68" y2="71.37"/></g><rect class="cls-30" x="320.63" y="189.09" width="39.9" height="21.55" transform="translate(140.21 540.16) rotate(-89.92)"/><rect class="cls-30" x="321.5" y="62.66" width="39.9" height="21.55" transform="translate(105.4 330.85) rotate(-59.62)"/><g><line class="cls-32" x1="341.45" y1="73.44" x2="363.9" y2="35.34"/><path class="cls-36" d="M363.22,36.5l-3.16,.04v-.11s3.74-2.91,3.74-2.91c1.07-1.15,2.14-2.3,3.21-3.45-.49,1.49-.98,2.99-1.47,4.48l-.73,4.68-.09,.06-1.51-2.8Z"/></g><line class="cls-30" x1="340.58" y1="200.33" x2="341.36" y2="73.78"/><g><line class="cls-27" x1="341.36" y1="73.78" x2="341.35" y2="72.78"/><line class="cls-33" x1="341.34" y1="70.73" x2="340.88" y2="2.03"/><line class="cls-27" x1="340.87" y1="1" x2="340.87" y2="0"/></g><g><path class="cls-29" d="M356.97,44.82c-2.19-4.31-6.3-6.29-9.79-7.19"/><path class="cls-51" d="M348.49,38.01l1.22,2.92-.1,.05-4.09-2.39c-1.47-.56-2.93-1.13-4.4-1.69,1.57-.1,3.14-.21,4.71-.31l4.62-1.07,.08,.06-2.03,2.44Z"/></g><path class="cls-43" d="M341.06,139.17c3.22,0,3.22-5,0-5s-3.22,5,0,5h0Z"/><line class="cls-23" x1="341.06" y1="136.67" x2="373.17" y2="136.12"/><g><path class="cls-27" d="M356.67,135.9c.63-10.55-7.84-13.06-12.56-13.64"/><path class="cls-43" d="M344.78,122.38l.72,1.41-.05,.03-2.13-1.04c-.75-.23-1.51-.45-2.26-.68,.78-.11,1.56-.22,2.33-.33l2.26-.71,.04,.03-.92,1.29Z"/></g><text class="cls-41" transform="translate(400.44 64.97)"><tspan class="cls-59" x="0" y="0">δ</tspan><tspan class="cls-15" x="8.19" y="0" xml:space="preserve"> : a</tspan><tspan class="cls-1" x="26.31" y="0">n</tspan><tspan class="cls-15" x="34.47" y="0">g</tspan><tspan class="cls-18" x="41.5" y="0">l</tspan><tspan class="cls-15" x="45.35" y="0">e </tspan><tspan class="cls-3" x="55.32" y="0">d</tspan><tspan class="cls-15" x="63.28" y="0">e </tspan><tspan class="cls-17" x="73.26" y="0">l</tspan><tspan class="cls-14" x="77.08" y="0">a </tspan><tspan class="cls-1" x="87.3" y="0">r</tspan><tspan class="cls-15" x="92.74" y="0">o</tspan><tspan class="cls-18" x="100.48" y="0">u</tspan><tspan class="cls-15" x="108.43" y="0">e </tspan><tspan class="cls-15"><tspan class="cls-66" x="0" y="18">a</tspan><tspan class="cls-55" x="6.38" y="18">v</tspan><tspan x="13.37" y="18">a</tspan><tspan class="cls-39" x="20.08" y="18">n</tspan><tspan x="28.27" y="18">t</tspan></tspan><tspan class="cls-20"><tspan class="cls-52" x="0" y="36">v</tspan><tspan class="cls-53" x="6.96" y="36">f</tspan><tspan class="cls-9" x="11.17" y="36" xml:space="preserve"> : </tspan><tspan class="cls-5" x="22.58" y="36">v</tspan><tspan class="cls-6" x="29.67" y="36">i</tspan><tspan class="cls-13" x="33.64" y="36">t</tspan><tspan class="cls-9" x="37.95" y="36">es</tspan><tspan class="cls-16" x="50.02" y="36">s</tspan><tspan class="cls-9" x="55.68" y="36">e </tspan><tspan class="cls-4" x="65.65" y="36">d</tspan><tspan class="cls-9" x="73.62" y="36">e </tspan><tspan class="cls-8" x="83.59" y="36">l</tspan><tspan class="cls-9" x="87.42" y="36">a </tspan><tspan class="cls-2" x="97.63" y="36">r</tspan><tspan class="cls-9" x="103.08" y="36">o</tspan><tspan class="cls-4" x="110.82" y="36">u</tspan><tspan class="cls-9" x="118.77" y="36">e </tspan></tspan><tspan class="cls-15"><tspan class="cls-66" x="0" y="54">a</tspan><tspan class="cls-55" x="6.38" y="54">v</tspan><tspan x="13.37" y="54">a</tspan><tspan class="cls-39" x="20.08" y="54">n</tspan><tspan x="28.27" y="54">t</tspan></tspan><tspan class="cls-59" x="0" y="72">ψ</tspan><tspan class="cls-15" x="9.83" y="72" xml:space="preserve"> : </tspan><tspan class="cls-17" x="21.23" y="72">la</tspan><tspan class="cls-15" x="31.7" y="72">c</tspan><tspan class="cls-12" x="38.12" y="72">e</tspan><tspan class="cls-15" x="44.69" y="72">t (</tspan><tspan class="cls-10" x="58.2" y="72">Y</tspan><tspan class="cls-11" x="65.15" y="72">a</tspan><tspan class="cls-7" x="71.47" y="72">w</tspan><tspan class="cls-15" x="82.04" y="72">)</tspan><tspan class="cls-15"><tspan class="cls-50" x="0" y="90">C</tspan><tspan class="cls-48" x="10.44" y="90">I</tspan><tspan x="15.97" y="90">R : </tspan><tspan class="cls-57" x="36.57" y="90">C</tspan><tspan x="47.02" y="90">e</tspan><tspan class="cls-61" x="53.5" y="90">n</tspan><tspan class="cls-46" x="61.69" y="90">t</tspan><tspan class="cls-19" x="66.16" y="90">r</tspan><tspan x="71.61" y="90">e </tspan><tspan class="cls-69" x="81.58" y="90">I</tspan><tspan class="cls-64" x="86.53" y="90">n</tspan><tspan class="cls-19" x="94.66" y="90">s</tspan><tspan x="100.12" y="90">ta</tspan><tspan class="cls-61" x="111.4" y="90">n</tspan><tspan x="119.59" y="90">ta</tspan><tspan x="130.87" y="90">-</tspan></tspan><tspan class="cls-15"><tspan class="cls-60" x="0" y="108">n</tspan><tspan x="8.24" y="108">é </tspan><tspan class="cls-35" x="18.21" y="108">d</tspan><tspan x="26.17" y="108">e </tspan><tspan class="cls-38" x="36.15" y="108">R</tspan><tspan x="45.69" y="108">ot</tspan><tspan class="cls-67" x="57.99" y="108">a</tspan><tspan x="64.56" y="108">t</tspan><tspan class="cls-35" x="69.12" y="108">i</tspan><tspan class="cls-46" x="73.12" y="108">o</tspan><tspan x="80.77" y="108">n </tspan></tspan></text><text class="cls-22" transform="translate(9.42 256.01)"><tspan class="cls-37" x="0" y="0">M</tspan><tspan x="17.2" y="0">od</tspan><tspan class="cls-47" x="37.06" y="0">e</tspan><tspan x="45.06" y="0">le </tspan><tspan class="cls-58" x="62.96" y="0">d</tspan><tspan class="cls-45" x="73.3" y="0">’</tspan><tspan class="cls-49" x="75.34" y="0">A</tspan><tspan class="cls-58" x="87.52" y="0">c</tspan><tspan class="cls-40" x="95.12" y="0">k</tspan><tspan x="104.96" y="0">e</tspan><tspan class="cls-63" x="113.12" y="0">r</tspan><tspan class="cls-62" x="120.84" y="0">m</tspan><tspan x="136.74" y="0">ann </tspan></text><text class="cls-22" transform="translate(300.41 252.94)"><tspan class="cls-57" x="0" y="0">B</tspan><tspan x="11.78" y="0">i</tspan><tspan class="cls-54" x="17.26" y="0">c</tspan><tspan class="cls-65" x="25.48" y="0">y</tspan><tspan class="cls-58" x="34.56" y="0">c</tspan><tspan x="42.16" y="0">le mod</tspan><tspan class="cls-56" x="95.9" y="0">e</tspan><tspan x="103.9" y="0">l </tspan></text><text class="cls-42" transform="translate(355.96 126.41) rotate(-1.66)"><tspan x="0" y="0">ψ</tspan></text><text class="cls-22" transform="translate(367.51 47.47) rotate(-1.66)"><tspan class="cls-54" x="0" y="0">v</tspan><tspan x="9.28" y="0">f</tspan></text><text class="cls-42" transform="translate(347.24 29.51) rotate(-1.66)"><tspan x="0" y="0">δ</tspan></text></g></svg>