<?xml version="1.0" encoding="UTF-8"?><svg id="Calque_2" xmlns="http://www.w3.org/2000/svg" viewBox="0 0 474.18 230.32"><defs><style>.cls-1{fill:#5fb23d;}.cls-2{stroke:#5fb23d;stroke-linecap:round;}.cls-2,.cls-3{stroke-width:2px;}.cls-2,.cls-3,.cls-4,.cls-5,.cls-6{stroke-miterlimit:10;}.cls-2,.cls-3,.cls-5,.cls-6{fill:none;}.cls-3,.cls-4{stroke:#000;}.cls-4{fill:#676766;}.cls-5{stroke:#e52421;stroke-width:5px;}.cls-6{stroke:#e73433;stroke-width:4px;}.cls-7{fill:#1d1d1b;font-family:MyriadPro-Regular, 'Myriad Pro';font-size:20px;}</style></defs><g id="Calque_1-2"><path class="cls-5" d="M18.39,129.38s-.1-.44-.27-1.27C15.79,117.36,3.6,44.69,2.57,31.93c-.87-10.77,5.96-45.01,61.91-21.16s26.14,62.51,16.82,68.78c-10.45,7.02-53.73,26.9-11.77,25.99s60.22-54.19,70.17-46.55c12.84,9.86,33.32,24.84,43.8,37.38,11.85,14.18-48.99,21.21-53.89,41.96-5.2,22.07,46.47,54.34,46.47,54.34,0,0,34.47,20.41,10.17,29.35-24.31,8.94-118.7,8.41-123.29-7.64s36.99-29.66,34.78-43.72-19.26-41.73-48.38-32.33c-29.12,9.4-30.96-8.94-30.96-8.94Z"/><rect class="cls-4" x="173.24" y="166.45" width="6.42" height="11.01" transform="translate(-69.74 162.26) rotate(-42.01)"/><rect class="cls-4" x="408.21" y="168.79" width="21.63" height="37.09" transform="translate(-32.79 268.17) rotate(-34.23)"/><rect class="cls-3" x="116.76" y="114.17" width="88.97" height="79.8"/><path class="cls-6" d="M375.27,208.16s-38.98-47.69-37.61-70.62c1.38-22.93,78.88-95.39,78.88-95.39"/><g><path class="cls-2" d="M412.11,178.5c-7.53-9.86-20.83-14.46-30.55-16.58"/><path class="cls-1" d="M369.61,160.16c5.94-1.19,13.46-3.64,18.37-6.72l-4.89,8.86,1.91,9.93c-3.72-4.45-10.12-9.1-15.4-12.07Z"/></g><text class="cls-7" transform="translate(399.13 145.92)"><tspan x="0" y="0">?</tspan></text></g></svg>